<svg width="18" height="13" viewBox="0 0 18 13" fill="none" xmlns="http://www.w3.org/2000/svg">
<path fill-rule="evenodd" clip-rule="evenodd" d="M15.4269 0.170898C14.9518 0.170898 14.5276 0.35755 14.2221 0.66298L6.94271 7.95936L3.05696 4.05664C2.73744 3.73713 2.30408 3.55762 1.85221 3.55762C1.40034 3.55762 0.966981 3.73712 0.647462 4.05664C0.327942 4.37616 0.148438 4.80953 0.148438 5.2614C0.148437 5.71327 0.327942 6.14663 0.647462 6.46615L5.73796 11.5566C6.04339 11.8621 6.4676 12.0487 6.94271 12.0487C7.41782 12.0487 7.84203 11.8621 8.14746 11.5566L16.6316 3.07248C16.8684 2.83419 17.0294 2.53115 17.0943 2.20153C17.1592 1.87191 17.1251 1.53046 16.9962 1.22019C16.8674 0.909929 16.6496 0.64473 16.3704 0.458006C16.0911 0.271281 15.7628 0.171383 15.4269 0.170898Z" fill="white"/>
</svg>
