<svg width="107" height="113" viewBox="0 0 107 113" fill="none" xmlns="http://www.w3.org/2000/svg">
<path d="M55.145 10.1277C55.2212 8.04404 53.5921 6.27917 51.5083 6.35072C42.1365 6.67253 32.9914 9.46249 25.0133 14.4686C15.9668 20.145 8.8391 28.4082 4.55668 38.1842C0.274269 47.9601 -0.964822 58.7967 1.00047 69.2854C2.96576 79.774 8.04455 89.4297 15.5767 96.9972C23.1088 104.565 32.7459 109.694 43.2354 111.719C53.7248 113.743 64.5815 112.57 74.3942 108.35C84.2069 104.13 92.5218 97.0599 98.2582 88.0578C103.316 80.1212 106.162 71.0067 106.541 61.6511C106.626 59.5655 104.868 57.9243 102.782 57.9882C100.696 58.0521 99.0724 59.7979 98.9634 61.8826C98.5535 69.7216 96.1238 77.3458 91.8811 84.0039C86.9591 91.728 79.8246 97.7947 71.405 101.415C62.9853 105.036 53.6699 106.043 44.6696 104.306C35.6693 102.569 27.4003 98.1674 20.9375 91.6742C14.4747 85.181 10.1169 76.8961 8.43059 67.8965C6.7443 58.8969 7.80748 49.5987 11.4819 41.2106C15.1564 32.8224 21.2722 25.7323 29.0344 20.8617C35.7281 16.6616 43.3791 14.2796 51.2332 13.9178C53.3157 13.8219 55.0687 12.211 55.145 10.1277Z" fill="#5B6FD0"/>
<path d="M49.6381 67.5664L95.2772 22.4743C96.8987 20.8722 99.4919 20.8242 101.172 22.3652C102.977 24.022 103.024 26.8548 101.273 28.5695L49.638 79.1336L27.1323 57.0628C25.6313 55.5909 25.6194 53.1772 27.1058 51.6905C28.5411 50.2549 30.8541 50.2092 32.3451 51.5869L49.6381 67.5664Z" fill="#5B6FD0"/>
</svg>
