<svg width="1920" height="914" viewBox="0 0 1920 914" fill="none" xmlns="http://www.w3.org/2000/svg">
<path d="M1920 0H0V913.997H1920V0Z" fill="#84BFBE"/>
<path d="M1916 914.001H0V560.284L1916 715.664V914.001Z" fill="#E0CEA0"/>
<path d="M670.181 53.3301C670.461 54.8201 670.72 56.2801 671.11 57.7001C671.46 59.1201 671.89 60.5101 672.41 61.8401C673.44 64.5001 674.741 66.9401 676.441 69.0601C678.061 71.2301 680.011 73.1201 682.191 74.9401C683.291 75.8401 684.381 76.8101 685.551 77.7901C686.711 78.7801 687.901 79.8301 689.091 81.0301C690.271 82.2301 691.471 83.6001 692.491 85.2401C693.491 86.8801 694.29 88.7801 694.73 90.7601C694.95 91.7401 695.09 92.7401 695.16 93.7201C695.22 94.6801 695.191 95.7301 695.151 96.5001C695.051 98.2901 694.821 100.05 694.381 101.85C693.521 105.43 691.701 108.99 689.281 111.82C686.841 114.65 684.01 116.76 681.36 118.52C675.99 121.95 671.181 124.46 668.701 127.94C667.411 129.64 666.62 131.65 666.17 134.01C666.06 134.58 665.97 135.24 665.92 135.79C665.89 136.22 665.87 136.41 665.85 136.73L665.821 137.64C665.781 138.85 665.861 140.05 666.071 141.24C666.871 146 669.871 150.63 673.511 155.34C674.391 156.55 675.301 157.77 676.181 159.05C677.061 160.33 677.95 161.64 678.66 163.1C679.38 164.54 679.981 166.08 680.281 167.69C680.551 169.3 680.541 170.95 680.131 172.46L679.54 172.42C679.64 170.97 679.431 169.51 678.961 168.14C678.491 166.76 677.781 165.48 676.951 164.27C675.281 161.85 673.191 159.72 671.151 157.54C669.111 155.36 667.09 153.13 665.36 150.64C663.64 148.16 662.24 145.4 661.48 142.44C660.7 139.48 660.571 136.39 660.941 133.37C661.301 130.35 662.31 127.35 664.04 124.8C665.76 122.24 668.111 120.2 670.561 118.46C673.021 116.71 675.621 115.21 678.091 113.58C680.561 111.96 682.931 110.19 684.841 108C686.761 105.82 688.15 103.21 688.91 100.4C689.29 99.0001 689.53 97.5501 689.66 96.1001C689.8 94.6301 689.781 93.2001 689.511 91.7801C689.011 88.9401 687.431 86.4001 685.491 84.2101C683.551 82.0001 681.32 80.0101 679.23 77.8501C677.14 75.7001 675.171 73.3701 673.631 70.7601C672.091 68.1501 671 65.2801 670.36 62.3301C669.71 59.3801 669.501 56.3501 669.571 53.3601H670.17L670.181 53.3301Z" fill="white"/>
<path d="M831.38 53.3301C831.66 54.8201 831.92 56.2801 832.31 57.7001C832.66 59.1201 833.09 60.5101 833.61 61.8401C834.64 64.5001 835.94 66.9401 837.64 69.0601C839.26 71.2301 841.21 73.1201 843.39 74.9401C844.49 75.8401 845.58 76.8101 846.75 77.7901C847.91 78.7801 849.1 79.8301 850.29 81.0301C851.47 82.2301 852.67 83.6001 853.69 85.2401C854.69 86.8801 855.49 88.7801 855.93 90.7501C856.16 91.7301 856.29 92.7301 856.36 93.7101C856.42 94.6701 856.39 95.7201 856.35 96.4901C856.25 98.2801 856.02 100.04 855.58 101.84C854.72 105.42 852.9 108.98 850.48 111.81C848.04 114.64 845.21 116.75 842.56 118.51C837.19 121.94 832.38 124.45 829.9 127.93C828.61 129.63 827.82 131.64 827.37 134C827.26 134.57 827.18 135.23 827.12 135.78C827.09 136.21 827.07 136.4 827.05 136.72L827.02 137.63C826.98 138.84 827.06 140.04 827.27 141.23C828.07 145.99 831.07 150.62 834.71 155.33C835.59 156.54 836.5 157.76 837.38 159.04C838.26 160.32 839.15 161.63 839.86 163.09C840.58 164.53 841.18 166.07 841.48 167.68C841.75 169.29 841.74 170.94 841.33 172.45L840.74 172.41C840.84 170.96 840.63 169.5 840.16 168.13C839.69 166.75 838.98 165.47 838.15 164.26C836.48 161.84 834.39 159.71 832.35 157.53C830.31 155.35 828.29 153.12 826.56 150.63C824.84 148.15 823.44 145.39 822.68 142.43C821.9 139.47 821.77 136.38 822.14 133.36C822.5 130.34 823.51 127.34 825.25 124.79C826.97 122.23 829.32 120.19 831.77 118.45C834.23 116.7 836.83 115.2 839.3 113.57C841.77 111.95 844.14 110.18 846.05 107.99C847.97 105.81 849.36 103.2 850.12 100.39C850.51 98.9901 850.74 97.5401 850.87 96.0901C851.01 94.6201 850.99 93.1901 850.73 91.7701C850.23 88.9301 848.65 86.3901 846.71 84.2001C844.77 81.9901 842.54 80.0001 840.45 77.8401C838.36 75.6901 836.39 73.3601 834.85 70.7501C833.31 68.1401 832.22 65.2701 831.58 62.3201C830.93 59.3701 830.72 56.3401 830.79 53.3501H831.39L831.38 53.3301Z" fill="white"/>
<path d="M710.031 26.6104C711.061 33.5204 712.71 40.1904 716.07 45.7304C717.68 48.5303 719.651 51.0504 721.901 53.4604L725.39 57.1804C726.59 58.4604 727.83 59.8004 729.04 61.2904C730.25 62.7804 731.421 64.4504 732.401 66.3204C733.361 68.1903 734.101 70.2703 734.531 72.3803C734.971 74.4803 735.11 76.6504 735.04 78.6504C734.99 80.5804 734.82 82.5404 734.49 84.5104C733.83 88.4504 732.39 92.5004 730.13 96.0603C727.85 99.6203 724.851 102.51 721.961 104.86C719.041 107.2 716.24 109.14 713.92 111.14C711.57 113.11 709.78 115.16 708.48 117.53C707.17 119.89 706.4 122.64 705.98 125.64C705.88 126.4 705.81 127.13 705.75 127.95C705.7 128.65 705.68 129.45 705.67 130.2C705.65 131.71 705.741 133.22 705.961 134.71C706.811 140.69 709.81 146.39 713.58 152.21C714.48 153.69 715.41 155.19 716.31 156.75C717.2 158.31 718.08 159.92 718.75 161.64C719.43 163.36 719.97 165.16 720.22 167C720.43 168.84 720.39 170.69 719.99 172.44L719.401 172.41C719.611 168.99 718.61 165.61 716.95 162.62C715.3 159.61 713.141 156.9 711.031 154.14C708.921 151.38 706.84 148.56 705.13 145.5C703.41 142.45 702.08 139.14 701.35 135.69C700.61 132.25 700.45 128.68 700.74 125.19C701.03 121.69 701.85 118.18 703.45 115C705.03 111.81 707.41 109.07 710.04 106.76C712.67 104.43 715.53 102.44 718.2 100.26C720.87 98.1003 723.351 95.7104 725.211 92.8704C727.081 90.0404 728.29 86.8004 728.94 83.4604C729.27 81.7904 729.46 80.0804 729.56 78.3704C729.67 76.6704 729.61 74.9704 729.32 73.3004C728.78 69.9504 727.22 66.8603 725.2 64.1003C723.19 61.3204 720.83 58.7603 718.69 56.0103C716.54 53.2703 714.59 50.3104 713.14 47.1104C710.21 40.6904 709.3 33.5704 709.44 26.6304H710.04L710.031 26.6104Z" fill="white"/>
<path d="M749.881 15.7405C750.911 23.0505 752.521 30.1705 755.851 36.2205C757.451 39.2705 759.421 42.0405 761.701 44.7005L765.231 48.7705C766.441 50.1705 767.701 51.6305 768.911 53.2405C770.121 54.8505 771.291 56.6305 772.251 58.6005C773.201 60.5705 773.911 62.7305 774.351 64.9105C774.781 67.0905 774.951 69.2905 774.881 71.4305C774.841 73.4105 774.681 75.4705 774.381 77.5205C773.781 81.6205 772.441 85.8505 770.251 89.6705C768.041 93.4905 765.021 96.7005 762.051 99.3005C759.051 101.89 756.151 104.04 753.791 106.25C751.391 108.43 749.591 110.72 748.271 113.35C746.961 115.98 746.201 119.02 745.801 122.26C745.701 123.08 745.631 123.88 745.581 124.74C745.541 125.51 745.511 126.36 745.501 127.17C745.491 128.8 745.581 130.43 745.801 132.04C746.661 138.51 749.671 144.65 753.481 150.92C754.391 152.51 755.331 154.13 756.231 155.8C757.121 157.47 758.001 159.2 758.661 161.03C759.331 162.86 759.851 164.76 760.081 166.69C760.281 168.63 760.221 170.57 759.831 172.42L759.241 172.39C759.441 168.76 758.481 165.17 756.831 161.94C755.191 158.7 753.011 155.74 750.881 152.75C748.751 149.76 746.661 146.7 744.941 143.41C743.221 140.12 741.911 136.6 741.191 132.95C740.461 129.3 740.291 125.54 740.571 121.85C740.841 118.15 741.611 114.43 743.161 111.01C744.691 107.58 747.061 104.56 749.751 102.01C752.441 99.4405 755.401 97.2305 758.131 94.8205C760.871 92.4305 763.381 89.7805 765.211 86.6805C767.051 83.5905 768.221 80.1205 768.831 76.5505C769.141 74.7705 769.331 72.9605 769.421 71.1405C769.511 69.3405 769.441 67.5305 769.151 65.7605C768.601 62.2005 767.041 58.8805 764.991 55.8905C762.951 52.8805 760.551 50.0905 758.401 47.0905C756.231 44.1005 754.301 40.9005 752.881 37.4705C750.021 30.5905 749.151 23.0805 749.291 15.7305H749.891L749.881 15.7405Z" fill="white"/>
<path d="M789.72 27.0608C790.75 33.9508 792.4 40.6108 795.76 46.1208C797.37 48.9108 799.34 51.4108 801.59 53.8208L805.08 57.5208C806.28 58.8008 807.52 60.1308 808.73 61.6208C809.94 63.1108 811.11 64.7708 812.09 66.6308C813.05 68.5008 813.79 70.5708 814.22 72.6808C814.66 74.7708 814.8 76.9508 814.72 78.9308C814.66 80.8608 814.49 82.8108 814.16 84.7808C813.5 88.7108 812.05 92.7508 809.79 96.3008C807.51 99.8508 804.51 102.731 801.63 105.061C798.71 107.391 795.92 109.321 793.6 111.311C791.25 113.271 789.47 115.321 788.16 117.671C786.85 120.021 786.08 122.761 785.66 125.751C785.56 126.511 785.49 127.241 785.43 128.051C785.38 128.751 785.36 129.551 785.35 130.291C785.33 131.801 785.42 133.301 785.64 134.791C786.49 140.751 789.49 146.431 793.26 152.231C794.16 153.711 795.09 155.201 795.99 156.761C796.88 158.311 797.76 159.921 798.43 161.641C799.11 163.351 799.66 165.151 799.9 166.981C800.11 168.821 800.07 170.671 799.67 172.411L799.08 172.381C799.17 170.681 798.99 168.981 798.56 167.331C798.13 165.691 797.45 164.111 796.63 162.621C794.98 159.621 792.82 156.921 790.72 154.171C788.61 151.421 786.53 148.611 784.82 145.561C783.1 142.521 781.77 139.221 781.04 135.781C780.3 132.351 780.14 128.791 780.43 125.301C780.72 121.811 781.54 118.301 783.15 115.141C784.74 111.961 787.11 109.231 789.74 106.931C792.37 104.611 795.23 102.631 797.89 100.461C800.56 98.3108 803.04 95.9308 804.89 93.1008C806.76 90.2808 807.98 87.0508 808.63 83.7208C808.96 82.0508 809.15 80.3508 809.25 78.6408C809.36 76.9408 809.3 75.2508 809.01 73.5808C808.47 70.2408 806.91 67.1608 804.89 64.4108C802.88 61.6408 800.52 59.0908 798.38 56.3508C796.23 53.6208 794.28 50.6708 792.83 47.4808C789.9 41.0808 788.99 33.9808 789.13 27.0508H789.72V27.0608Z" fill="white"/>
<path d="M125.12 386.77C375.67 383.27 587.18 222.66 667.26 0H0V375.12C40.37 383.32 82.24 387.36 125.12 386.76V386.77Z" fill="#FFC7A3"/>
<g style="mix-blend-mode:hard-light" opacity="0.1">
<path d="M789.85 394.89C789.85 433.97 758.17 465.65 719.09 465.65C680.01 465.65 648.33 433.97 648.33 394.89C648.33 355.81 680.01 324.13 719.09 324.13C758.17 324.13 789.85 355.81 789.85 394.89Z" fill="white"/>
</g>
<g style="mix-blend-mode:hard-light" opacity="0.1">
<path d="M861.581 343.41C861.581 356.74 850.77 367.54 837.44 367.54C824.11 367.54 813.311 356.73 813.311 343.41C813.311 330.09 824.11 319.27 837.44 319.27C850.77 319.27 861.581 330.08 861.581 343.41Z" fill="white"/>
</g>
<g style="mix-blend-mode:hard-light" opacity="0.1">
<path d="M818.047 541.026C848.074 510.998 848.074 462.314 818.047 432.287C788.019 402.259 739.335 402.259 709.308 432.287C679.281 462.314 679.28 510.998 709.308 541.026C739.335 571.053 788.019 571.053 818.047 541.026Z" fill="white"/>
</g>
</svg>
