<svg width="668" height="746" viewBox="0 0 668 746" fill="none" xmlns="http://www.w3.org/2000/svg">
<path d="M396.813 578.521C395.522 578.886 394.226 579.24 392.923 579.581L392.771 579.001C392.122 579.171 391.471 579.338 390.819 579.502C390.167 579.666 389.514 579.826 388.861 579.983L389.002 580.567C387.693 580.882 386.383 581.183 385.073 581.471L384.944 580.885C383.638 581.172 382.332 581.445 381.025 581.705L381.142 582.293C379.824 582.555 378.505 582.804 377.187 583.038L377.082 582.448C375.761 582.683 374.441 582.904 373.12 583.112L373.213 583.705C371.888 583.913 370.563 584.108 369.238 584.29L369.157 583.695C367.83 583.877 366.503 584.045 365.176 584.199L365.245 584.795C363.91 584.951 362.575 585.093 361.24 585.221L361.183 584.624C359.852 584.752 358.521 584.866 357.191 584.967L357.237 585.565C355.897 585.667 354.558 585.755 353.219 585.829L353.186 585.23C351.849 585.305 350.512 585.366 349.176 585.413L349.197 586.013C347.857 586.06 346.518 586.095 345.179 586.116L345.17 585.516C343.831 585.536 342.493 585.544 341.155 585.538L341.153 586.138C339.81 586.132 338.469 586.113 337.128 586.08L337.143 585.48C335.806 585.448 334.471 585.402 333.136 585.343L333.11 585.943C331.769 585.884 330.429 585.811 329.09 585.726L329.128 585.127C327.793 585.041 326.459 584.943 325.127 584.831L325.077 585.429C323.74 585.317 322.405 585.193 321.071 585.055L321.133 584.458C319.802 584.32 318.473 584.17 317.146 584.006L317.072 584.602C315.741 584.438 314.411 584.261 313.083 584.071L313.168 583.477C311.844 583.288 310.522 583.086 309.202 582.871L309.105 583.464C307.782 583.248 306.46 583.021 305.141 582.78L305.248 582.19C303.933 581.95 302.619 581.698 301.307 581.433L301.188 582.021C299.874 581.755 298.561 581.477 297.251 581.187L297.381 580.601C296.076 580.312 294.774 580.01 293.473 579.697L293.333 580.28C292.029 579.965 290.727 579.638 289.429 579.299L289.58 578.718C288.287 578.38 286.995 578.03 285.707 577.668L285.544 578.246C284.255 577.883 282.967 577.509 281.683 577.122L281.856 576.547C280.575 576.162 279.296 575.765 278.021 575.355L277.838 575.927C276.562 575.517 275.288 575.096 274.018 574.663L274.212 574.095C272.947 573.664 271.686 573.221 270.427 572.766L270.223 573.331C268.961 572.875 267.703 572.408 266.447 571.929L266.661 571.369C265.412 570.893 264.167 570.405 262.925 569.906L262.702 570.463C261.459 569.964 260.219 569.453 258.983 568.931L259.216 568.379C257.983 567.858 256.753 567.327 255.527 566.784L255.284 567.332C254.06 566.79 252.839 566.237 251.622 565.673L251.874 565.129C250.662 564.567 249.454 563.994 248.249 563.411L247.987 563.951C246.779 563.366 245.575 562.77 244.375 562.163L244.646 561.628C243.454 561.026 242.266 560.413 241.083 559.789L240.803 560.32C239.618 559.696 238.437 559.061 237.26 558.416L237.548 557.89C236.374 557.246 235.204 556.592 234.038 555.928L233.741 556.449C232.578 555.786 231.42 555.114 230.266 554.431L230.572 553.915C229.422 553.234 228.276 552.543 227.135 551.843L226.821 552.354C225.677 551.651 224.537 550.939 223.402 550.216L223.724 549.71C222.599 548.994 221.477 548.267 220.361 547.531L220.031 548.032C218.912 547.295 217.798 546.548 216.689 545.791L217.027 545.296C215.921 544.541 214.819 543.776 213.722 543.002L213.376 543.492C212.284 542.721 211.196 541.941 210.113 541.151L210.466 540.666C209.387 539.878 208.312 539.082 207.242 538.275L206.881 538.755C205.809 537.946 204.741 537.129 203.679 536.302L204.047 535.829C202.994 535.01 201.947 534.181 200.904 533.344L200.528 533.812C199.484 532.973 198.445 532.126 197.411 531.269L197.793 530.807C196.762 529.953 195.735 529.089 194.714 528.217L194.324 528.673C193.307 527.804 192.296 526.927 191.29 526.041L191.686 525.591C190.684 524.708 189.686 523.816 188.694 522.916L188.291 523.36C187.297 522.458 186.308 521.547 185.325 520.628L185.734 520.19C184.76 519.278 183.79 518.359 182.826 517.431L182.41 517.863C181.446 516.934 180.487 515.997 179.534 515.052L179.956 514.626C179.005 513.683 178.06 512.731 177.12 511.772L176.691 512.192C175.755 511.236 174.825 510.272 173.9 509.3L174.335 508.886C173.414 507.919 172.499 506.943 171.59 505.96L171.15 506.367C170.239 505.382 169.334 504.388 168.435 503.387L168.881 502.986C167.988 501.992 167.102 500.991 166.221 499.981L165.769 500.376C164.889 499.368 164.016 498.352 163.148 497.329L163.606 496.941C162.74 495.92 161.88 494.891 161.026 493.855L160.563 494.236C159.712 493.202 158.866 492.161 158.026 491.112L158.495 490.737C157.661 489.695 156.833 488.646 156.011 487.59L155.537 487.958C154.714 486.9 153.897 485.834 153.086 484.761L153.565 484.4C152.758 483.332 151.957 482.257 151.163 481.176L150.68 481.531C149.889 480.453 149.104 479.369 148.326 478.277L148.814 477.929C148.037 476.84 147.267 475.744 146.503 474.641L146.01 474.983C145.246 473.879 144.488 472.769 143.737 471.652L144.235 471.317C143.491 470.21 142.753 469.098 142.022 467.978L141.52 468.306C140.787 467.185 140.062 466.056 139.343 464.921L139.849 464.6C139.132 463.468 138.421 462.329 137.716 461.184L137.205 461.498C136.506 460.36 135.813 459.215 135.126 458.065L135.642 457.758C134.957 456.61 134.28 455.457 133.609 454.297L133.089 454.597C132.417 453.435 131.752 452.267 131.093 451.092L131.617 450.799C130.963 449.634 130.317 448.463 129.678 447.287L129.151 447.573C128.512 446.398 127.881 445.216 127.256 444.029L127.787 443.75C127.163 442.565 126.547 441.374 125.937 440.178L125.402 440.45C124.794 439.256 124.193 438.056 123.598 436.85L124.137 436.585C123.547 435.388 122.964 434.186 122.389 432.979L121.847 433.237C121.27 432.027 120.7 430.812 120.138 429.591L120.683 429.339C120.122 428.122 119.568 426.899 119.022 425.67L118.473 425.914C117.931 424.694 117.395 423.469 116.867 422.239L117.418 422.002C116.891 420.774 116.371 419.541 115.858 418.302L115.303 418.532C114.789 417.291 114.283 416.045 113.783 414.794L114.341 414.571C113.846 413.332 113.359 412.088 112.879 410.838L112.319 411.053C111.839 409.805 111.367 408.551 110.902 407.293L111.465 407.085C111 405.829 110.544 404.568 110.094 403.302L109.529 403.503C109.08 402.239 108.639 400.971 108.206 399.698L108.774 399.505C108.344 398.243 107.921 396.976 107.506 395.705L106.936 395.891C106.52 394.617 106.112 393.339 105.711 392.056L106.283 391.877C105.883 390.596 105.49 389.311 105.105 388.021L104.53 388.193C104.148 386.914 103.774 385.631 103.407 384.344L103.984 384.179C103.618 382.895 103.26 381.606 102.909 380.313L102.33 380.47C101.978 379.175 101.634 377.875 101.298 376.571L101.879 376.421C101.711 375.77 101.545 375.118 101.38 374.465C101.216 373.812 101.054 373.158 100.895 372.505L100.312 372.648C99.9917 371.339 99.6805 370.031 99.3779 368.723L99.9625 368.588C99.6605 367.283 99.3672 365.978 99.0826 364.673L98.4964 364.801C98.2111 363.493 97.9346 362.185 97.6667 360.878L98.2544 360.758C97.9841 359.439 97.7226 358.121 97.4699 356.803L96.8806 356.916C96.6274 355.596 96.383 354.276 96.1474 352.957L96.7381 352.852C96.5029 351.535 96.2765 350.219 96.0587 348.904L95.4668 349.002C95.2471 347.675 95.0363 346.349 94.8343 345.024L95.4275 344.933C95.225 343.605 95.0315 342.278 94.8467 340.952L94.2524 341.035C94.0673 339.706 93.891 338.378 93.7235 337.051L94.3188 336.976C94.1511 335.648 93.9923 334.321 93.8423 332.996L93.2461 333.063C93.0945 331.724 92.9519 330.387 92.8182 329.05L93.4153 328.99C93.2818 327.657 93.1572 326.324 93.0414 324.992L92.4437 325.044C92.3277 323.711 92.2205 322.378 92.1221 321.047L92.7205 321.002C92.6214 319.661 92.5312 318.322 92.45 316.984L91.8511 317.02C91.7696 315.678 91.697 314.338 91.6333 312.999L92.2326 312.97C92.1691 311.634 92.1144 310.299 92.0685 308.966L91.4688 308.987C91.4226 307.643 91.3853 306.302 91.3568 304.962L91.9567 304.949C91.9282 303.606 91.9087 302.266 91.898 300.927L91.2981 300.932C91.2874 299.59 91.2856 298.25 91.2928 296.913L91.8927 296.916C91.8999 295.577 91.9159 294.24 91.9408 292.905L91.3409 292.894C91.366 291.547 91.4001 290.203 91.4431 288.861L92.0427 288.881C92.0857 287.542 92.1375 286.205 92.1983 284.87L91.5989 284.843C91.6598 283.504 91.7295 282.168 91.8082 280.835L92.4072 280.87C92.4863 279.528 92.5745 278.188 92.6715 276.851L92.0731 276.808C92.1704 275.468 92.2767 274.13 92.3918 272.796L92.9895 272.847C93.1045 271.515 93.2282 270.186 93.3609 268.859L92.7639 268.8C92.8978 267.46 93.0407 266.123 93.1926 264.789L93.7888 264.857C93.9405 263.525 94.1012 262.195 94.2708 260.868L93.6757 260.792C93.8456 259.462 94.0245 258.136 94.2122 256.812L94.8062 256.896C94.9947 255.568 95.1921 254.242 95.3984 252.92L94.8056 252.828C95.0129 251.499 95.2292 250.174 95.4544 248.852L96.0459 248.952C96.2706 247.633 96.5042 246.317 96.7467 245.005L96.1567 244.896C96.4008 243.575 96.6538 242.257 96.9157 240.944L97.5041 241.061C97.7665 239.744 98.0379 238.431 98.3182 237.122L97.7315 236.997C98.0123 235.685 98.3021 234.377 98.6007 233.073L99.1856 233.206C99.4846 231.901 99.7924 230.599 100.109 229.301L99.5262 229.159C99.8452 227.852 100.173 226.548 100.51 225.249L101.091 225.4C101.427 224.104 101.772 222.812 102.126 221.524L101.547 221.365C101.903 220.071 102.267 218.782 102.64 217.497L103.216 217.664C103.591 216.375 103.974 215.089 104.367 213.809L103.793 213.633C104.186 212.35 104.588 211.071 104.999 209.796L105.57 209.981C105.981 208.707 106.4 207.438 106.828 206.174L106.26 205.982C106.692 204.707 107.133 203.437 107.582 202.172L108.148 202.373C108.596 201.111 109.054 199.853 109.52 198.601L108.958 198.392C109.426 197.136 109.902 195.884 110.388 194.638L110.947 194.856C111.434 193.605 111.931 192.358 112.436 191.118L111.88 190.891C112.386 189.648 112.901 188.41 113.425 187.177L113.977 187.412C114.501 186.181 115.032 184.956 115.573 183.736L115.024 183.493C115.57 182.262 116.124 181.037 116.687 179.819L117.232 180.07C117.794 178.854 118.364 177.644 118.943 176.439L118.402 176.179C118.983 174.971 119.573 173.769 120.171 172.573L120.708 172.842C121.309 171.641 121.918 170.446 122.536 169.258L122.004 168.981C122.624 167.79 123.252 166.605 123.889 165.427L124.417 165.712C125.053 164.536 125.697 163.366 126.351 162.202L125.827 161.909C126.486 160.735 127.154 159.569 127.83 158.409L128.348 158.711C129.023 157.554 129.706 156.404 130.398 155.26L129.884 154.95C130.578 153.802 131.281 152.662 131.992 151.529L132.5 151.848C133.213 150.711 133.935 149.582 134.666 148.459L134.163 148.132C134.895 147.007 135.636 145.889 136.385 144.779L136.883 145.115C137.631 144.006 138.388 142.904 139.153 141.81L138.662 141.466C139.432 140.364 140.212 139.27 141 138.184L141.486 138.536C142.271 137.452 143.066 136.376 143.868 135.308L143.389 134.947C144.195 133.875 145.009 132.811 145.832 131.754L146.305 132.123C147.129 131.065 147.961 130.015 148.802 128.974L148.335 128.597C149.178 127.553 150.029 126.517 150.888 125.489L151.348 125.874C152.207 124.847 153.074 123.829 153.949 122.82L153.496 122.427C154.376 121.411 155.264 120.405 156.161 119.407L156.607 119.808C157.501 118.812 158.404 117.826 159.314 116.848L158.875 116.439C159.79 115.457 160.713 114.484 161.644 113.52L162.075 113.936C163.006 112.973 163.944 112.018 164.891 111.073L164.467 110.649C165.416 109.701 166.373 108.762 167.339 107.833L167.755 108.265C168.719 107.337 169.691 106.418 170.672 105.509L170.264 105.069C171.248 104.156 172.24 103.252 173.24 102.359L173.64 102.806C174.637 101.915 175.643 101.033 176.656 100.162L176.264 99.7069C177.282 98.8317 178.307 97.9663 179.34 97.1109L179.722 97.573C180.753 96.7195 181.791 95.8761 182.838 95.0428L182.464 94.5735C183.513 93.7378 184.57 92.9123 185.634 92.0971L185.999 92.5735C187.061 91.7602 188.131 90.9572 189.208 90.1647L188.853 89.6814C189.933 88.8865 191.021 88.102 192.117 87.3282L192.463 87.8183C193.556 87.0467 194.656 86.2856 195.763 85.5353L195.427 85.0386C196.537 84.2866 197.654 83.5454 198.779 82.815L199.106 83.3183C200.228 82.5901 201.356 81.8727 202.493 81.1664L202.176 80.6568C203.315 79.9485 204.462 79.2512 205.616 78.565L205.922 79.0807C207.071 78.398 208.226 77.7264 209.388 77.066L209.092 76.5443C210.258 75.8819 211.431 75.2308 212.611 74.591L212.897 75.1185C214.073 74.4811 215.255 73.8551 216.445 73.2406L216.17 72.7075C217.359 72.093 218.556 71.49 219.759 70.8986L220.024 71.4371C221.224 70.8474 222.43 70.2693 223.644 69.7029L223.39 69.1592C224.605 68.592 225.827 68.0365 227.055 67.4928L227.298 68.0415C228.518 67.5016 229.744 66.9734 230.978 66.457L230.746 65.9036C231.983 65.3856 233.226 64.8795 234.476 64.3854L234.697 64.9434C235.939 64.4522 237.188 63.9729 238.444 63.5057L238.234 62.9433C239.488 62.4769 240.747 62.0223 242.013 61.5798L242.211 62.1462C243.474 61.705 244.742 61.2759 246.017 60.8589L245.83 60.2886C247.103 59.8722 248.382 59.4679 249.667 59.0759L249.842 59.6498C251.117 59.2609 252.398 58.8841 253.684 58.5195L253.521 57.9422C254.811 57.5765 256.108 57.2231 257.41 56.8819L257.562 57.4623C258.211 57.2923 258.862 57.1253 259.514 56.9614C260.167 56.7975 260.819 56.637 261.472 56.4799L261.332 55.8965C262.641 55.5815 263.95 55.2801 265.26 54.9924L265.389 55.5784C266.695 55.2915 268.002 55.0181 269.309 54.7583L269.192 54.1698C270.51 53.9078 271.828 53.6594 273.146 53.4246L273.251 54.0153C274.572 53.7802 275.893 53.5588 277.213 53.3509L277.12 52.7582C278.445 52.5497 279.77 52.3548 281.095 52.1734L281.176 52.7678C282.503 52.5862 283.831 52.4181 285.158 52.2636L285.088 51.6676C286.423 51.5121 287.758 51.3703 289.093 51.242L289.151 51.8393C290.481 51.7114 291.812 51.5971 293.142 51.4962L293.097 50.8979C294.436 50.7963 295.776 50.7082 297.114 50.6337L297.148 51.2328C298.485 51.1583 299.821 51.0974 301.157 51.0498L301.136 50.4502C302.476 50.4025 303.815 50.3683 305.154 50.3475L305.163 50.9474C306.502 50.9265 307.841 50.9191 309.178 50.925L309.181 50.325C310.523 50.3309 311.864 50.3501 313.205 50.3827L313.19 50.9825C314.527 51.015 315.862 51.0607 317.197 51.1196L317.223 50.5202C318.565 50.5794 319.905 50.6518 321.243 50.7374L321.205 51.3362C322.54 51.4216 323.874 51.5201 325.207 51.6316L325.257 51.0337C326.593 51.1456 327.928 51.2705 329.262 51.4085L329.2 52.0053C330.531 52.1429 331.86 52.2935 333.187 52.457L333.261 51.8615C334.592 52.0255 335.922 52.2024 337.25 52.3921L337.165 52.986C338.489 53.1752 339.811 53.3771 341.132 53.5917L341.228 52.9995C342.551 53.2146 343.873 53.4425 345.192 53.6829L345.085 54.2732C346.401 54.513 347.714 54.7654 349.026 55.0302L349.145 54.4421C350.459 54.7076 351.772 54.9856 353.082 55.276L352.952 55.8618C354.257 56.151 355.56 56.4526 356.86 56.7665L357.001 56.1833C358.304 56.498 359.606 56.8251 360.905 57.1644L360.753 57.7449C362.047 58.0828 363.338 58.4329 364.626 58.795L364.789 58.2174C366.079 58.5799 367.366 58.9545 368.65 59.3411L368.478 59.9156C369.759 60.3011 371.037 60.6985 372.312 61.1078L372.496 60.5365C373.772 60.946 375.045 61.3674 376.315 61.8004L376.122 62.3683C377.386 62.7995 378.648 63.2423 379.906 63.6967L380.11 63.1323C381.372 63.5879 382.631 64.0552 383.886 64.5339L383.672 65.0945C384.921 65.5705 386.166 66.058 387.408 66.5567L387.632 66C388.875 66.4992 390.114 67.0098 391.351 67.5316L391.117 68.0843C392.35 68.6048 393.58 69.1364 394.806 69.6792L395.049 69.1305C396.273 69.6726 397.494 70.2257 398.711 70.7897L398.459 71.3341C399.671 71.8959 400.88 72.4686 402.085 73.0521L402.346 72.5121C403.554 73.0972 404.758 73.693 405.958 74.2997L405.688 74.8352C406.879 75.4374 408.067 76.0503 409.25 76.6737L409.53 76.1428C410.715 76.767 411.896 77.4018 413.074 78.0471L412.785 78.5732C413.959 79.2168 415.129 79.871 416.295 80.5354L416.593 80.0141C417.755 80.6766 418.913 81.3492 420.067 82.0321L419.761 82.5485C420.911 83.229 422.057 83.9197 423.198 84.6205L423.512 84.1092C424.656 84.8117 425.796 85.5243 426.931 86.2468L426.609 86.753C427.735 87.4694 428.856 88.1957 429.972 88.9318L430.303 88.4308C431.421 89.168 432.535 89.9151 433.644 90.6718L433.306 91.1674C434.412 91.9224 435.514 92.687 436.611 93.4612L436.957 92.971C438.05 93.742 439.137 94.5225 440.22 95.3124L439.867 95.7972C440.946 96.5846 442.021 97.3815 443.091 98.1877L443.452 97.7085C444.525 98.5166 445.592 99.334 446.654 100.161L446.286 100.634C447.339 101.453 448.387 102.282 449.43 103.119L449.805 102.651C450.849 103.49 451.889 104.337 452.923 105.194L452.54 105.656C453.572 106.51 454.598 107.374 455.619 108.246L456.009 107.79C457.026 108.659 458.037 109.536 459.043 110.422L458.647 110.872C459.65 111.755 460.647 112.647 461.639 113.547L462.042 113.103C463.037 114.005 464.025 114.916 465.009 115.835L464.599 116.273C465.574 117.185 466.543 118.104 467.507 119.033L467.923 118.6C468.887 119.529 469.846 120.466 470.799 121.411L470.377 121.837C471.328 122.78 472.274 123.732 473.213 124.691L473.642 124.271C474.578 125.227 475.509 126.191 476.433 127.163L475.999 127.577C476.919 128.544 477.834 129.52 478.743 130.503L479.184 130.096C480.094 131.081 481 132.075 481.899 133.076L481.452 133.477C482.345 134.471 483.231 135.472 484.112 136.482L484.564 136.087C485.444 137.095 486.318 138.111 487.185 139.134L486.728 139.522C487.593 140.543 488.453 141.572 489.307 142.608L489.77 142.227C490.622 143.261 491.467 144.302 492.307 145.351L491.839 145.726C492.673 146.768 493.501 147.817 494.322 148.873L494.796 148.505C495.619 149.563 496.436 150.629 497.247 151.702L496.768 152.064C497.575 153.131 498.376 154.206 499.17 155.287L499.654 154.932C500.445 156.01 501.229 157.094 502.008 158.186L501.519 158.534C502.296 159.623 503.066 160.719 503.83 161.822L504.323 161.48C505.087 162.584 505.845 163.694 506.597 164.811L506.099 165.146C506.843 166.253 507.58 167.365 508.311 168.485L508.813 168.157C509.546 169.279 510.272 170.407 510.991 171.542L510.484 171.863C511.202 172.995 511.913 174.134 512.617 175.28L513.128 174.965C513.828 176.103 514.521 177.248 515.207 178.398L514.692 178.705C515.376 179.853 516.054 181.007 516.725 182.166L517.244 181.866C517.916 183.028 518.582 184.196 519.24 185.371L518.717 185.664C519.37 186.829 520.016 188 520.655 189.176L521.182 188.89C521.821 190.065 522.453 191.247 523.077 192.434L522.547 192.713C523.17 193.898 523.787 195.089 524.396 196.285L524.931 196.013C525.539 197.207 526.141 198.407 526.735 199.613L526.197 199.878C526.786 201.075 527.369 202.277 527.945 203.484L528.486 203.226C529.063 204.436 529.633 205.651 530.195 206.873L529.65 207.124C530.211 208.341 530.765 209.564 531.312 210.793L531.86 210.549C532.403 211.769 532.938 212.994 533.466 214.224L532.915 214.461C533.443 215.689 533.963 216.922 534.476 218.161L535.03 217.931C535.544 219.172 536.051 220.418 536.55 221.669L535.993 221.892C536.487 223.131 536.974 224.375 537.454 225.625L538.014 225.41C538.494 226.658 538.966 227.912 539.431 229.17L538.869 229.378C539.333 230.634 539.79 231.895 540.239 233.161L540.804 232.96C541.253 234.224 541.694 235.492 542.128 236.765L541.56 236.958C541.989 238.22 542.412 239.487 542.827 240.758L543.397 240.572C543.813 241.846 544.222 243.124 544.623 244.407L544.05 244.586C544.45 245.867 544.843 247.152 545.228 248.442L545.803 248.27C546.185 249.549 546.559 250.832 546.926 252.119L546.349 252.284C546.715 253.568 547.074 254.857 547.424 256.15L548.004 255.993C548.355 257.288 548.699 258.588 549.036 259.892L548.455 260.042C548.623 260.693 548.789 261.345 548.953 261.998C549.117 262.651 549.279 263.305 549.439 263.958L550.021 263.815C550.342 265.124 550.653 266.432 550.955 267.74L550.371 267.875C550.673 269.18 550.966 270.485 551.251 271.79L551.837 271.662C552.122 272.97 552.399 274.278 552.667 275.585L552.079 275.705C552.349 277.024 552.611 278.342 552.863 279.66L553.453 279.547C553.706 280.867 553.95 282.187 554.186 283.506L553.595 283.611C553.83 284.928 554.057 286.244 554.275 287.559L554.866 287.461C555.086 288.788 555.297 290.114 555.499 291.439L554.906 291.53C555.108 292.858 555.302 294.185 555.487 295.511L556.081 295.428C556.266 296.757 556.442 298.085 556.61 299.412L556.014 299.487C556.182 300.815 556.341 302.142 556.491 303.468L557.087 303.4C557.239 304.739 557.381 306.076 557.515 307.413L556.918 307.473C557.051 308.806 557.176 310.139 557.292 311.471L557.89 311.419C558.006 312.753 558.113 314.085 558.211 315.417L557.613 315.461C557.712 316.802 557.802 318.141 557.883 319.48L558.482 319.443C558.564 320.785 558.636 322.126 558.7 323.464L558.101 323.493C558.164 324.829 558.219 326.164 558.265 327.497L558.864 327.476C558.911 328.82 558.948 330.161 558.976 331.501L558.377 331.514C558.405 332.857 558.425 334.197 558.435 335.536L559.035 335.531C559.046 336.873 559.048 338.213 559.041 339.55L558.441 339.547C558.433 340.886 558.417 342.223 558.392 343.558L558.992 343.569C558.967 344.916 558.933 346.26 558.89 347.602L558.291 347.582C558.248 348.922 558.196 350.258 558.135 351.593L558.734 351.62C558.673 352.959 558.604 354.295 558.525 355.628L557.926 355.593C557.847 356.935 557.759 358.275 557.662 359.612L558.26 359.656C558.163 360.995 558.057 362.333 557.941 363.667L557.344 363.616C557.229 364.948 557.105 366.277 556.972 367.604L557.569 367.663C557.435 369.003 557.293 370.34 557.141 371.674L556.545 371.606C556.393 372.938 556.232 374.268 556.062 375.595L556.658 375.671C556.488 377.001 556.309 378.327 556.121 379.651L555.527 379.567C555.339 380.895 555.141 382.221 554.935 383.543L555.528 383.635C555.32 384.964 555.104 386.289 554.879 387.611L554.287 387.511C554.063 388.83 553.829 390.146 553.587 391.458L554.177 391.567C553.933 392.888 553.679 394.206 553.418 395.519L552.829 395.402C552.567 396.719 552.295 398.032 552.015 399.341L552.602 399.466C552.321 400.778 552.031 402.086 551.733 403.39L551.148 403.257C550.849 404.562 550.541 405.864 550.224 407.162L550.807 407.304C550.488 408.611 550.16 409.915 549.823 411.214L549.242 411.063C548.906 412.359 548.561 413.651 548.207 414.939L548.786 415.098C548.431 416.392 548.066 417.681 547.693 418.966L547.117 418.799C546.742 420.088 546.359 421.374 545.967 422.654L546.54 422.83C546.147 424.114 545.745 425.392 545.334 426.667L544.763 426.483C544.353 427.756 543.933 429.025 543.505 430.289L544.073 430.481C543.641 431.756 543.201 433.026 542.751 434.291L542.186 434.09C541.737 435.352 541.279 436.61 540.813 437.862L541.376 438.071C540.908 439.327 540.431 440.579 539.946 441.825L539.387 441.607C538.899 442.858 538.403 444.105 537.898 445.345L538.453 445.572C537.947 446.815 537.432 448.053 536.908 449.286L536.356 449.051C535.833 450.282 535.301 451.507 534.76 452.727L535.309 452.97C534.763 454.201 534.209 455.426 533.646 456.645L533.101 456.393C532.54 457.609 531.969 458.819 531.39 460.024L531.931 460.284C531.35 461.492 530.76 462.694 530.162 463.89L529.626 463.621C529.025 464.822 528.415 466.017 527.797 467.205L528.329 467.482C527.71 468.673 527.081 469.858 526.444 471.036L525.916 470.751C525.28 471.927 524.636 473.097 523.983 474.261L524.506 474.554C523.847 475.728 523.179 476.895 522.503 478.054L521.985 477.752C521.31 478.909 520.627 480.06 519.936 481.203L520.449 481.513C519.755 482.661 519.052 483.801 518.341 484.934L517.833 484.615C517.12 485.752 516.398 486.881 515.667 488.004L516.17 488.331C515.438 489.456 514.697 490.574 513.948 491.684L513.451 491.348C512.702 492.457 511.945 493.559 511.18 494.653L511.672 494.997C510.901 496.099 510.121 497.193 509.333 498.279L508.848 497.927C508.062 499.011 507.268 500.087 506.465 501.155L506.945 501.516C506.139 502.588 505.324 503.652 504.502 504.709L504.028 504.34C503.204 505.398 502.372 506.448 501.531 507.489L501.998 507.866C501.156 508.91 500.305 509.946 499.445 510.974L498.985 510.589C498.126 511.616 497.259 512.634 496.384 513.643L496.838 514.036C495.958 515.052 495.069 516.058 494.173 517.056L493.726 516.655C492.832 517.651 491.93 518.637 491.019 519.615L491.458 520.024C490.543 521.006 489.621 521.979 488.69 522.943L488.258 522.527C487.328 523.49 486.389 524.445 485.442 525.39L485.866 525.815C484.917 526.762 483.96 527.701 482.995 528.63L482.579 528.198C481.614 529.126 480.642 530.045 479.662 530.954L480.07 531.394C479.085 532.307 478.093 533.211 477.093 534.104L476.693 533.657C475.696 534.548 474.691 535.43 473.678 536.301L474.069 536.756C473.052 537.631 472.026 538.497 470.994 539.352L470.611 538.89C469.58 539.743 468.542 540.587 467.496 541.42L467.869 541.89C466.82 542.725 465.763 543.551 464.699 544.366L464.334 543.89C463.272 544.703 462.202 545.506 461.125 546.298L461.481 546.782C460.4 547.577 459.312 548.361 458.216 549.135L457.87 548.645C456.777 549.416 455.677 550.177 454.57 550.928L454.906 551.424C453.796 552.176 452.679 552.918 451.554 553.648L451.227 553.145C450.106 553.873 448.977 554.59 447.841 555.297L448.157 555.806C447.018 556.515 445.871 557.212 444.718 557.898L444.411 557.382C443.263 558.065 442.107 558.737 440.945 559.397L441.241 559.919C440.076 560.581 438.903 561.232 437.722 561.872L437.436 561.345C436.261 561.982 435.078 562.608 433.888 563.222L434.164 563.756C432.974 564.37 431.778 564.973 430.574 565.564L430.31 565.026C429.11 565.616 427.903 566.194 426.69 566.76L426.943 567.304C425.728 567.871 424.507 568.427 423.278 568.97L423.035 568.422C421.815 568.961 420.589 569.49 419.356 570.006L419.587 570.559C418.351 571.077 417.107 571.584 415.857 572.078L415.637 571.52C414.394 572.011 413.145 572.49 411.89 572.957L412.099 573.52C410.846 573.986 409.586 574.441 408.32 574.883L408.122 574.317C406.86 574.758 405.591 575.187 404.316 575.604L404.503 576.174C403.23 576.591 401.951 576.995 400.666 577.387L400.491 576.813C399.216 577.202 397.936 577.579 396.649 577.944L396.813 578.521Z" stroke="#00AFF0" stroke-width="1.2" stroke-dasharray="4 4"/>
<path d="M621.774 483.763C645.328 341.516 502.082 276.923 426.501 262.182C124.343 232.49 18.6817 528.671 78.2987 643.388C160.64 801.83 256.151 694.661 293.614 621.271C339.081 561.457 478.28 540.747 542.196 537.869C586.253 546.341 612.929 505.178 621.774 483.763Z" fill="#00AFF0" stroke="#00AFF0"/>
</svg>
