<svg width="35" height="34" viewBox="0 0 35 34" fill="none" xmlns="http://www.w3.org/2000/svg">
<path d="M29.6865 5.0726C26.5855 1.89592 22.3499 0.0806746 17.8118 0.0806746C8.58431 0.0806746 1.02079 7.6442 1.02079 16.8717C1.02079 19.8971 1.85278 22.7712 3.28985 25.2672L0.945158 33.9652L9.79448 31.6962C12.2904 32.982 15.0133 33.7383 17.8118 33.7383C27.1149 33.7383 34.8297 26.1748 34.8297 16.9473C34.8297 12.4092 32.8632 8.24928 29.6865 5.0726ZM17.8118 30.8642C15.3158 30.8642 12.8955 30.1835 10.7021 28.8977L10.2483 28.5951L4.95382 30.0322L6.39089 24.889L6.01272 24.3596C4.65128 22.0905 3.89493 19.5189 3.89493 16.8717C3.89493 9.23254 10.1727 2.95481 17.8874 2.95481C21.5936 2.95481 25.0728 4.39188 27.72 7.03911C30.3673 9.68635 31.9556 13.1656 31.9556 16.9473C31.9556 24.5865 25.5266 30.8642 17.8118 30.8642ZM25.5266 20.4265C25.0728 20.1996 23.0306 19.2164 22.6525 19.0651C22.2743 18.9138 21.9717 18.8382 21.6692 19.292C21.4423 19.6702 20.6103 20.6535 20.3834 20.956C20.0809 21.1829 19.854 21.2585 19.4758 21.0316C16.9798 19.8215 15.3915 18.8382 13.7275 16.0397C13.2737 15.2834 14.1813 15.359 14.9377 13.7706C15.0889 13.4681 15.0133 13.2412 14.9377 13.0143C14.862 12.7874 13.9544 10.7452 13.6519 9.91325C13.2737 9.08126 12.9712 9.1569 12.6686 9.1569C12.4417 9.1569 12.1392 9.1569 11.9123 9.1569C11.6097 9.1569 11.1559 9.23254 10.7777 9.68635C10.3996 10.1402 9.34067 11.1234 9.34067 13.1656C9.34067 15.2834 10.7777 17.2499 11.0046 17.5524C11.2315 17.7793 13.9544 22.0149 18.19 23.8301C20.8372 25.0403 21.8961 25.1159 23.2575 24.889C24.0139 24.8134 25.6779 23.9058 26.056 22.9225C26.4342 21.9393 26.4342 21.1073 26.283 20.956C26.2073 20.7291 25.9048 20.6535 25.5266 20.4265Z" fill="white"/>
</svg>
