<svg width="32" height="32" viewBox="0 0 32 32" fill="none" xmlns="http://www.w3.org/2000/svg">
<path d="M16.4371 31.55C12.1975 31.55 11.6977 31.5276 10.0432 31.4552C8.75297 31.4128 7.47946 31.1505 6.2775 30.6796C5.24892 30.2793 4.31483 29.6695 3.53453 28.8889C2.75423 28.1084 2.14479 27.174 1.74489 26.1453C1.29216 24.939 1.04797 23.6644 1.02278 22.3762C0.92627 20.7251 0.92627 20.184 0.92627 15.9771C0.92627 11.7254 0.948674 11.2291 1.02278 9.58321C1.04853 8.29671 1.29271 7.02394 1.74489 5.81926C2.14433 4.78923 2.75419 3.85383 3.53552 3.07279C4.31685 2.29176 5.25249 1.68225 6.28267 1.28321C7.48673 0.828576 8.75982 0.58375 10.0466 0.559373C11.6925 0.466308 12.2336 0.466309 16.4371 0.466309C20.7112 0.466309 21.2023 0.488713 22.831 0.559373C24.1201 0.583501 25.3989 0.828227 26.6053 1.28321C27.6352 1.68271 28.5706 2.29238 29.3518 3.07336C30.1331 3.85434 30.7431 4.7895 31.143 5.81926C31.6032 7.04289 31.8496 8.33546 31.8686 9.64009C31.9651 11.2911 31.9651 11.8306 31.9651 16.0357C31.9651 20.2409 31.941 20.7924 31.8686 22.4244C31.8428 23.7139 31.5981 24.9896 31.1448 26.197C30.7438 27.2264 30.1333 28.1613 29.3518 28.9422C28.5703 29.7231 27.635 30.3329 26.6053 30.7331C25.3989 31.1846 24.1253 31.4293 22.8379 31.4552C21.192 31.55 20.6526 31.55 16.4371 31.55ZM16.3785 3.19449C12.163 3.19449 11.7252 3.21517 10.0794 3.28927C9.09641 3.30213 8.12294 3.48341 7.20125 3.82526C6.529 4.08294 5.9182 4.47863 5.40823 4.98681C4.89826 5.495 4.50044 6.10441 4.24041 6.77576C3.89573 7.70641 3.71477 8.69048 3.70443 9.68317C3.61308 11.3532 3.61308 11.7909 3.61308 15.9771C3.61308 20.1133 3.6286 20.6148 3.70443 22.2745C3.71994 23.2568 3.9009 24.2306 4.24041 25.1526C4.76778 26.5089 5.84319 27.5809 7.20297 28.1014C8.12347 28.4454 9.09675 28.6267 10.0794 28.6374C11.7476 28.7339 12.1871 28.7339 16.3785 28.7339C20.606 28.7339 21.0438 28.7132 22.6759 28.6374C23.6589 28.6255 24.6325 28.4442 25.554 28.1014C26.2226 27.8417 26.83 27.4458 27.3373 26.9387C27.8447 26.4317 28.241 25.8246 28.501 25.1561C28.8457 24.2254 29.0267 23.2396 29.037 22.2469H29.056C29.1301 20.5993 29.1301 20.1599 29.1301 15.9495C29.1301 11.7392 29.1111 11.2963 29.037 9.65043C29.0214 8.66887 28.8402 7.69698 28.501 6.77576C28.2416 6.10629 27.8456 5.49819 27.3382 4.99021C26.8308 4.48222 26.2231 4.08548 25.554 3.82526C24.6327 3.48175 23.659 3.30041 22.6759 3.28927C21.0093 3.19449 20.5733 3.19449 16.3785 3.19449ZM16.4371 23.9376C14.8611 23.9386 13.3203 23.4723 12.0094 22.5975C10.6985 21.7227 9.67653 20.4788 9.07265 19.0232C8.46877 17.5675 8.31015 15.9655 8.61685 14.4197C8.92355 12.8738 9.68179 11.4537 10.7957 10.3389C11.9096 9.22402 13.329 8.46455 14.8746 8.15652C16.4201 7.84848 18.0223 8.00571 19.4785 8.60833C20.9347 9.21094 22.1794 10.2319 23.0553 11.542C23.9312 12.8521 24.3989 14.3925 24.3993 15.9685C24.3966 18.08 23.557 20.1043 22.0646 21.5981C20.5722 23.0918 18.5486 23.933 16.4371 23.9376ZM16.4371 10.7948C15.4145 10.7948 14.4149 11.098 13.5646 11.6661C12.7144 12.2342 12.0517 13.0417 11.6604 13.9865C11.269 14.9312 11.1667 15.9708 11.3661 16.9737C11.5656 17.9767 12.0581 18.8979 12.7811 19.621C13.5042 20.3441 14.4255 20.8365 15.4284 21.036C16.4313 21.2355 17.4709 21.1331 18.4156 20.7418C19.3604 20.3504 20.1679 19.6877 20.736 18.8375C21.3041 17.9872 21.6073 16.9876 21.6073 15.965C21.6042 14.5948 21.0584 13.2816 20.0895 12.3126C19.1206 11.3437 17.8073 10.798 16.4371 10.7948ZM24.7095 9.56598C24.4655 9.56507 24.2241 9.51612 23.9991 9.42192C23.774 9.32772 23.5697 9.19011 23.3978 9.01695C23.0507 8.66725 22.8567 8.19397 22.8585 7.70124C22.8604 7.2085 23.0579 6.73668 23.4076 6.38956C23.7573 6.04244 24.2306 5.84845 24.7233 5.85028C25.216 5.85211 25.6878 6.0496 26.035 6.39931C26.3821 6.74901 26.5761 7.22229 26.5742 7.71502C26.5724 8.20776 26.3749 8.67958 26.0252 9.0267C25.6755 9.37382 25.2022 9.56781 24.7095 9.56598Z" fill="#00AFF0"/>
</svg>
