<svg width="114" height="52" viewBox="0 0 114 52" fill="none" xmlns="http://www.w3.org/2000/svg">
<path d="M12.9463 1.88019V35.6115H21.141C22.72 35.6115 23.9632 35.4936 24.8707 35.2576C25.7782 35.0217 26.6676 34.45 27.5388 33.5425C28.4281 32.635 29.1087 31.5551 29.5806 30.3027C30.0706 29.0504 30.5879 27.308 31.1324 25.0756H32.412L31.4047 37H0.722466V35.6115H6.46687V1.88019H0.722466V0.491736H19.0174V1.88019H12.9463ZM36.4957 26.2463C36.4957 23.1064 37.5756 20.4383 39.7354 18.2422C41.8952 16.0279 44.5723 14.9208 47.7667 14.9208C50.8884 14.9208 53.5292 15.9826 55.689 18.1061C57.867 20.2115 58.956 22.8523 58.956 26.0285C58.956 29.2773 57.8307 32.036 55.5801 34.3048C53.3296 36.5553 50.6706 37.6806 47.6033 37.6806C44.5905 37.6806 41.986 36.5826 39.7898 34.3864C37.5937 32.1722 36.4957 29.4588 36.4957 26.2463ZM52.8305 26.2463C52.8305 22.9067 52.7125 20.7015 52.4765 19.6307C52.2587 18.5598 51.7505 17.7159 50.952 17.0988C50.1715 16.4635 49.0916 16.1459 47.7122 16.1459C46.4054 16.1459 45.3255 16.4726 44.4725 17.126C43.6376 17.7612 43.1203 18.6143 42.9207 19.6851C42.721 20.756 42.6212 22.9612 42.6212 26.3007C42.6212 29.6584 42.7392 31.8818 42.9751 32.9708C43.2292 34.0597 43.7646 34.9128 44.5814 35.5299C45.4163 36.147 46.4599 36.4555 47.7122 36.4555C48.9827 36.4555 50.0354 36.147 50.8703 35.5299C51.7233 34.8946 52.2587 34.0234 52.4765 32.9163C52.7125 31.791 52.8305 29.5677 52.8305 26.2463ZM81.8519 18.4328C82.9228 19.9392 83.4582 21.4275 83.4582 22.8976C83.4582 25.3841 82.4509 27.2717 80.4363 28.5604C78.4398 29.8308 76.8063 30.4661 75.5358 30.4661L74.1746 30.5478C73.5393 30.5478 72.6772 30.5024 71.5882 30.4116C70.4993 30.3027 69.9185 30.2483 69.8459 30.2483C69.138 30.2483 68.3122 30.575 67.3684 31.2284C66.4246 31.8636 65.9527 32.5442 65.9527 33.2702C65.9527 33.9055 66.1978 34.3864 66.6878 34.7131C67.1778 35.0398 68.403 35.2032 70.3631 35.2032L79.674 34.822C81.616 34.822 83.195 35.4391 84.4111 36.6733C85.6271 37.9075 86.2351 39.668 86.2351 41.9549C86.2351 44.6229 85.137 46.8644 82.9409 48.6794C80.7448 50.5125 77.7047 51.4291 73.8207 51.4291C70.8078 51.4291 68.412 50.8211 66.6334 49.605C64.8728 48.4071 63.9926 46.9914 63.9926 45.358C63.9926 44.3597 64.2739 43.5158 64.8365 42.8261C65.3992 42.1545 66.6606 41.2561 68.6208 40.1308C65.6079 39.4048 64.1015 37.7441 64.1015 35.1487C64.1015 31.664 65.98 29.6947 69.737 29.241V29.1321C66.833 27.7527 65.381 25.6745 65.381 22.8976C65.381 20.6471 66.2794 18.7595 68.0763 17.2349C69.8731 15.6922 71.9875 14.9208 74.4196 14.9208C77.0695 14.9208 79.2837 15.8283 81.0624 17.6433C82.3692 15.8283 83.8212 14.9208 85.4184 14.9208C86.0355 14.9208 86.5709 15.1295 87.0246 15.547C87.4784 15.9644 87.7052 16.5361 87.7052 17.2621C87.7052 17.8974 87.5056 18.4056 87.1063 18.7867C86.707 19.1497 86.2714 19.3312 85.7995 19.3312C85.1098 19.3312 84.5926 19.0136 84.2477 18.3783C83.921 17.7431 83.6397 17.4255 83.4037 17.4255C82.95 17.4255 82.4327 17.7612 81.8519 18.4328ZM74.3107 16.3093C72.5502 16.3093 71.4612 16.7539 71.0438 17.6433C70.6263 18.5326 70.4176 20.0209 70.4176 22.1081C70.4176 25.121 70.6082 27.063 70.9893 27.9342C71.3886 28.8054 72.5139 29.241 74.3652 29.241C76.2527 29.241 77.3871 28.7963 77.7682 27.907C78.1494 27.0176 78.34 24.8487 78.34 21.4003C78.34 19.2586 77.9951 17.8792 77.3054 17.2621C76.6339 16.6269 75.6356 16.3093 74.3107 16.3093ZM70.1998 40.1308C68.4756 41.2198 67.6134 42.8352 67.6134 44.9768C67.6134 48.3527 69.9185 50.0406 74.5285 50.0406C77.4688 50.0406 79.8918 49.3509 81.7975 47.9715C83.7214 46.5922 84.6833 44.9768 84.6833 43.1255C84.6833 42.0184 84.2023 41.1654 83.2404 40.5664C82.2785 39.9675 81.1985 39.668 80.0007 39.668C79.5288 39.668 78.467 39.7225 76.8154 39.8314C75.1637 39.9403 73.9386 40.0038 73.14 40.0219L70.1998 40.1308ZM90.6183 26.2463C90.6183 23.1064 91.6982 20.4383 93.858 18.2422C96.0178 16.0279 98.6949 14.9208 101.889 14.9208C105.011 14.9208 107.652 15.9826 109.812 18.1061C111.99 20.2115 113.079 22.8523 113.079 26.0285C113.079 29.2773 111.953 32.036 109.703 34.3048C107.452 36.5553 104.793 37.6806 101.726 37.6806C98.7131 37.6806 96.1086 36.5826 93.9125 34.3864C91.7163 32.1722 90.6183 29.4588 90.6183 26.2463ZM106.953 26.2463C106.953 22.9067 106.835 20.7015 106.599 19.6307C106.381 18.5598 105.873 17.7159 105.075 17.0988C104.294 16.4635 103.214 16.1459 101.835 16.1459C100.528 16.1459 99.4481 16.4726 98.5951 17.126C97.7602 17.7612 97.2429 18.6143 97.0433 19.6851C96.8437 20.756 96.7438 22.9612 96.7438 26.3007C96.7438 29.6584 96.8618 31.8818 97.0977 32.9708C97.3518 34.0597 97.8873 34.9128 98.704 35.5299C99.5389 36.147 100.583 36.4555 101.835 36.4555C103.105 36.4555 104.158 36.147 104.993 35.5299C105.846 34.8946 106.381 34.0234 106.599 32.9163C106.835 31.791 106.953 29.5677 106.953 26.2463Z" fill="#00AFF0"/>
</svg>
