<svg width="32" height="36" viewBox="0 0 32 36" fill="none" xmlns="http://www.w3.org/2000/svg">
<path d="M27.4801 7.74549C27.238 7.62038 27.0024 7.48322 26.774 7.33453C26.1099 6.89552 25.5011 6.37823 24.9605 5.7938C23.6081 4.24634 23.103 2.67647 22.9169 1.57733H22.9244C22.769 0.664998 22.8333 0.074707 22.843 0.074707H16.683V23.894C16.683 24.2139 16.683 24.5299 16.6696 24.8423C16.6696 24.8811 16.6658 24.917 16.6636 24.9588C16.6636 24.976 16.6636 24.9939 16.6599 25.0119C16.6599 25.0163 16.6599 25.0208 16.6599 25.0253C16.5949 25.88 16.321 26.7055 15.8621 27.4294C15.4032 28.1533 14.7734 28.7534 14.0282 29.1768C13.2515 29.6186 12.3731 29.8504 11.4795 29.8493C8.6095 29.8493 6.28345 27.509 6.28345 24.6188C6.28345 21.7287 8.6095 19.3884 11.4795 19.3884C12.0228 19.3879 12.5627 19.4734 13.0793 19.6417L13.0867 13.3697C11.5186 13.1671 9.92556 13.2918 8.40803 13.7357C6.8905 14.1796 5.48144 14.9333 4.26974 15.949C3.20801 16.8715 2.31542 17.9722 1.63211 19.2016C1.37209 19.6499 0.391009 21.4514 0.272204 24.3752C0.197484 26.0348 0.695868 27.7541 0.933479 28.4647V28.4796C1.08292 28.8981 1.662 30.326 2.60572 31.5297C3.3667 32.4953 4.26577 33.3435 5.27398 34.047V34.0321L5.28892 34.047C8.27101 36.0735 11.5774 35.9405 11.5774 35.9405C12.1497 35.9173 14.0671 35.9405 16.2444 34.9086C18.6594 33.7646 20.0342 32.0602 20.0342 32.0602C20.9126 31.0419 21.611 29.8813 22.0995 28.6283C22.6569 27.1631 22.843 25.4056 22.843 24.7033V12.0666C22.9177 12.1114 23.913 12.7697 23.913 12.7697C23.913 12.7697 25.3468 13.6887 27.584 14.2873C29.189 14.7132 31.3514 14.8028 31.3514 14.8028V8.68772C30.5937 8.76991 29.0552 8.53081 27.4801 7.74549Z" fill="#00AFF0"/>
</svg>
