<svg width="32" height="32" viewBox="0 0 32 32" fill="none" xmlns="http://www.w3.org/2000/svg">
<path d="M23.6166 0.466309H8.09997C3.80077 0.466309 0.292236 3.97484 0.292236 8.27404V23.8154C0.292236 28.0899 3.80077 31.5984 8.09997 31.5984H23.6413C27.9405 31.5984 31.449 28.0899 31.449 23.7907V8.27404C31.4243 3.97484 27.9158 0.466309 23.6166 0.466309ZM23.5919 12.1285C23.5919 12.3014 23.5919 12.4744 23.5919 12.6474C23.5919 17.836 19.5892 23.8154 12.2509 23.8154C10.0025 23.8154 7.9023 23.173 6.14803 22.0611C6.46924 22.0858 6.76573 22.1105 7.08694 22.1105C8.96475 22.1105 10.6696 21.4928 12.0285 20.4304C10.2743 20.4057 8.8165 19.2691 8.29763 17.7125C8.54471 17.7619 8.79179 17.7866 9.03887 17.7866C9.40949 17.7866 9.78011 17.7372 10.1013 17.6384C8.32234 17.2678 6.9634 15.6864 6.9634 13.7839V13.7345C7.45756 14.031 8.09997 14.204 8.74238 14.2287C7.67993 13.5368 6.9634 12.3261 6.9634 10.9672C6.9634 10.2507 7.16106 9.58356 7.50697 8.99057C9.48362 11.3625 12.3992 12.9191 15.71 13.0921C15.6359 12.7956 15.6112 12.4991 15.6112 12.2026C15.6112 10.0283 17.3902 8.27404 19.5892 8.27404C20.7258 8.27404 21.7635 8.74349 22.5047 9.50944C23.4189 9.33648 24.259 9.01528 25.025 8.54583C24.7285 9.46002 24.086 10.226 23.2707 10.7201C24.086 10.6213 24.852 10.4236 25.5685 10.1024C25.025 10.8931 24.3578 11.5849 23.5919 12.1285Z" fill="#00AFF0"/>
</svg>
