<svg width="42" height="30" viewBox="0 0 42 30" fill="none" xmlns="http://www.w3.org/2000/svg">
<path d="M41.119 4.82137C40.6426 3.03014 39.2331 1.61705 37.4398 1.13275C34.1973 0.263672 21.1876 0.263672 21.1876 0.263672C21.1876 0.263672 8.18461 0.263672 4.9355 1.13275C3.14883 1.61042 1.73934 3.0235 1.25627 4.82137C0.389404 8.07213 0.389404 14.8589 0.389404 14.8589C0.389404 14.8589 0.389404 21.6457 1.25627 24.8965C1.73272 26.6877 3.14221 28.1008 4.9355 28.5851C8.18461 29.4542 21.1876 29.4542 21.1876 29.4542C21.1876 29.4542 34.1973 29.4542 37.4398 28.5851C39.2265 28.1074 40.636 26.6944 41.119 24.8965C41.9859 21.6457 41.9859 14.8589 41.9859 14.8589C41.9859 14.8589 41.9859 8.07213 41.119 4.82137Z" fill="#00AFF0"/>
<path d="M17.032 21.115L27.8381 14.8589L17.032 8.60287V21.115Z" fill="#00AFF0"/>
<path d="M13.1416 15.0088V11.5132C13.1416 7.17316 16.215 5.3959 19.9757 7.56593L23.0098 9.31373L26.0439 11.0615C29.8046 13.2316 29.8046 16.7861 26.0439 18.9561L23.0098 20.7039L19.9757 22.4517C16.215 24.6217 13.1416 22.8445 13.1416 18.5044V15.0088Z" fill="white" stroke="white" stroke-width="1.47287" stroke-miterlimit="10" stroke-linecap="round" stroke-linejoin="round"/>
</svg>
