<svg width="61" height="61" viewBox="0 0 61 61" fill="none" xmlns="http://www.w3.org/2000/svg">
<path d="M27.8477 17.7875V42.5281C27.8477 43.8096 28.8864 44.8469 30.1649 44.8469C31.4464 44.8469 32.4852 43.8096 32.4852 42.5281V17.7875C32.4852 16.506 31.4464 15.4688 30.1649 15.4688C28.8864 15.4688 27.8477 16.506 27.8477 17.7875Z" fill="#00AFF0"/>
<path d="M42.532 27.8398H17.7914C16.5099 27.8398 15.4727 28.8771 15.4727 30.1586C15.4727 31.4401 16.5099 32.4789 17.7914 32.4789H42.532C43.8135 32.4789 44.8523 31.4401 44.8523 30.1586C44.8523 28.8771 43.8135 27.8398 42.532 27.8398Z" fill="#00AFF0"/>
<path d="M30.1609 57.9913V55.6725C23.1081 55.6695 16.7428 52.82 12.1188 48.1991C7.49935 43.5751 4.64686 37.2128 4.64686 30.157C4.64686 23.1027 7.49935 16.7419 12.1188 12.1149C16.7473 7.49393 23.1081 4.64447 30.1609 4.64296C37.2137 4.64447 43.576 7.49393 48.203 12.1149C52.8255 16.7404 55.6764 23.1027 55.6764 30.157C55.6764 37.2128 52.8255 43.5751 48.203 48.1991C43.5775 52.82 37.2137 55.6695 30.1609 55.6725V57.9913V60.3101C46.8159 60.3086 60.314 46.8151 60.314 30.157C60.314 13.5019 46.8159 0.0054139 30.1609 0.00390625C13.5073 0.0054139 0.0078125 13.5019 0.0078125 30.157C0.0078125 46.8151 13.5073 60.3086 30.1609 60.3101V57.9913Z" fill="#00AFF0"/>
</svg>
