<svg width="49" height="49" viewBox="0 0 49 49" fill="none" xmlns="http://www.w3.org/2000/svg">
<path d="M22.4326 14.331V34.2633C22.4326 35.2958 23.2695 36.1314 24.2995 36.1314C25.332 36.1314 26.1689 35.2958 26.1689 34.2633V14.331C26.1689 13.2986 25.332 12.4629 24.2995 12.4629C23.2695 12.4629 22.4326 13.2986 22.4326 14.331Z" fill="#5B6FD0"/>
<path d="M34.2643 22.4287H14.332C13.2995 22.4287 12.4639 23.2644 12.4639 24.2968C12.4639 25.3293 13.2995 26.1662 14.332 26.1662H34.2643C35.2967 26.1662 36.1336 25.3293 36.1336 24.2968C36.1336 23.2644 35.2967 22.4287 34.2643 22.4287Z" fill="#5B6FD0"/>
<path d="M24.2975 46.7205V44.8524C18.6154 44.85 13.4872 42.5543 9.76187 38.8314C6.0402 35.1061 3.7421 29.9803 3.7421 24.2958C3.7421 18.6125 6.0402 13.4879 9.76187 9.76016C13.4908 6.03728 18.6154 3.7416 24.2975 3.74039C29.9796 3.7416 35.1054 6.03728 38.8331 9.76016C42.5572 13.4867 44.8541 18.6125 44.8541 24.2958C44.8541 29.9803 42.5572 35.1061 38.8331 38.8314C35.1066 42.5543 29.9796 44.85 24.2975 44.8524V46.7205V48.5887C37.7157 48.5874 48.5904 37.7164 48.5904 24.2958C48.5904 10.8776 37.7157 0.00414433 24.2975 0.00292969C10.8806 0.00414433 0.00463867 10.8776 0.00463867 24.2958C0.00463867 37.7164 10.8806 48.5874 24.2975 48.5887V46.7205Z" fill="#5B6FD0"/>
</svg>
