<svg xmlns="http://www.w3.org/2000/svg" viewBox="0 0 1407.32 449.76"><defs><style>.cls-1{fill:#5b6fd0;}.cls-2{fill:#d164ff;}</style></defs><g id="Layer_2" data-name="Layer 2"><g id="Layer_1-2" data-name="Layer 1"><path class="cls-1" d="M96.94,178.49q-14.86-5.73-30.37-12.82a130.29,130.29,0,0,1-28.18-17.38,83.71,83.71,0,0,1-20.58-24.63Q9.89,109.32,9.88,89.41q0-21.25,8.61-37.79a84.76,84.76,0,0,1,23.28-28A105.78,105.78,0,0,1,76.18,6.07,143.23,143.23,0,0,1,118.53,0a183.88,183.88,0,0,1,29.18,2.36A132.46,132.46,0,0,1,175.55,10a96.86,96.86,0,0,1,23.62,13.33A60.19,60.19,0,0,1,215.7,42.85a30.49,30.49,0,0,1,2.87,17.21,24.64,24.64,0,0,1-6.24,13.83A29.48,29.48,0,0,1,199.17,82a20.75,20.75,0,0,1-15.52-1.35Q169.47,68.16,156,62.08T122.91,56a118.62,118.62,0,0,0-21.76,1.86,53.5,53.5,0,0,0-17.21,6.07A33.7,33.7,0,0,0,72.47,74.57a27.6,27.6,0,0,0-4.21,15.52q0,8.77,4.72,14.68A41.32,41.32,0,0,0,85.8,115.06,112.64,112.64,0,0,0,105,123l24,7.59q20.58,6.4,39.48,14.34A142.69,142.69,0,0,1,201.53,164a85.61,85.61,0,0,1,22.61,26.66q8.43,15.51,8.43,36.77A83,83,0,0,1,224,264.7a93,93,0,0,1-23.62,30,112.8,112.8,0,0,1-35.6,19.9,132,132,0,0,1-44.2,7.26,193.4,193.4,0,0,1-33.74-3,139.65,139.65,0,0,1-32.73-10,121.73,121.73,0,0,1-28.51-17.72,81.64,81.64,0,0,1-20.75-26Q-1.93,252.39.77,242.09T11.4,226.74q7.92-5.07,19.4-3.54t22.61,11.64q9.11,13.5,26.82,22.27t40,8.77a75.83,75.83,0,0,0,20.24-2.7,59.68,59.68,0,0,0,17.37-7.76,40.45,40.45,0,0,0,12-12,28.62,28.62,0,0,0,4.39-15.69q0-9.1-7.59-16.7a75.89,75.89,0,0,0-19.06-13.5,194.43,194.43,0,0,0-25.14-10.63Q108.75,182.21,96.94,178.49Z"/><path class="cls-1" d="M302.41,320.82a.69.69,0,0,0,1.2,0l31.17-55.58a35.72,35.72,0,0,0,4.46-20.41L303.16,25.93h-1.61l-34.82,218.7a35.7,35.7,0,0,0,4.46,20.78Z"/><path class="cls-1" d="M302.33,56.45,287.58,30.9,274.68,8.55a2.14,2.14,0,0,1,1.85-3.2h51.61A2.14,2.14,0,0,1,330,8.55L317.09,30.9Z"/><path class="cls-1" d="M622.56,289.16a27.76,27.76,0,0,1-8.26,20.41,27.33,27.33,0,0,1-20.08,8.27,30.18,30.18,0,0,1-11.47-2.19,29.55,29.55,0,0,1-9.45-6.08,31.4,31.4,0,0,1-6.58-9.11,25.53,25.53,0,0,1-2.53-11.3V116.07A60.72,60.72,0,0,0,558.45,93,57.36,57.36,0,0,0,545,74.74a64.52,64.52,0,0,0-19.4-12,63.48,63.48,0,0,0-47.24.34,67.63,67.63,0,0,0-19.91,12.65,59.72,59.72,0,0,0-13.66,18.72,53.37,53.37,0,0,0-5.06,23V289.16a27.73,27.73,0,0,1-8.27,20.41,27.3,27.3,0,0,1-20.08,8.27,30.21,30.21,0,0,1-11.47-2.19,29.55,29.55,0,0,1-9.45-6.08,29,29,0,0,1-6.41-9.11,27.17,27.17,0,0,1-2.36-11.3V117.42a110.4,110.4,0,0,1,9.62-45.72,118,118,0,0,1,26.15-37.28A127,127,0,0,1,455.54,9.28,114.94,114.94,0,0,1,501.43,0a116.26,116.26,0,0,1,51.12,11.47,126.5,126.5,0,0,1,40.66,30.71,129.63,129.63,0,0,1,41.16-30.71,120.46,120.46,0,0,1,96.84-2.53,121.22,121.22,0,0,1,63.43,60.73A114.65,114.65,0,0,1,805.44,114a14.62,14.62,0,0,1,.33,3.38V289.16a27.45,27.45,0,0,1-8.43,20.41,27.89,27.89,0,0,1-20.25,8.27,30.21,30.21,0,0,1-11.47-2.19,29.66,29.66,0,0,1-9.45-6.08,28.81,28.81,0,0,1-6.4-9.11,27,27,0,0,1-2.37-11.3V116.41a62.42,62.42,0,0,0-5.73-23.29A55.85,55.85,0,0,0,728,74.74a66,66,0,0,0-19.74-12A63,63,0,0,0,685,58.37a61.1,61.1,0,0,0-23.79,4.73,65.11,65.11,0,0,0-19.73,12.65A60.85,60.85,0,0,0,628,94.47a57.11,57.11,0,0,0-5.4,23V289.16Z"/><path class="cls-1" d="M843.88,160.94a156.72,156.72,0,0,1,12.65-62.75,161.11,161.11,0,0,1,34.58-51.12A164.53,164.53,0,0,1,942.4,12.65a160.75,160.75,0,0,1,125,0,161.2,161.2,0,0,1,85.36,85.54,156.72,156.72,0,0,1,12.66,62.75,155.54,155.54,0,0,1-12.66,62.59,164.84,164.84,0,0,1-34.41,51.12,161.26,161.26,0,0,1-50.95,34.58,160.82,160.82,0,0,1-118.26,2.7,168,168,0,0,1-47.24-27.5V418.58q0,12.82-7.76,21.6T873.57,449a28.34,28.34,0,0,1-11.47-2.36,30.62,30.62,0,0,1-9.45-6.41,30,30,0,0,1-6.41-9.62,30.27,30.27,0,0,1-2.36-12Zm58,0a98.82,98.82,0,0,0,8.1,39.65,105.93,105.93,0,0,0,21.93,32.73,104.18,104.18,0,0,0,32.73,22.27,99.06,99.06,0,0,0,40.15,8.26,97.56,97.56,0,0,0,40.15-8.26,105.33,105.33,0,0,0,32.39-22.27,103.6,103.6,0,0,0,21.77-32.73A102.81,102.81,0,0,0,1077.36,88.4,104.38,104.38,0,0,0,1045,66.47a103.14,103.14,0,0,0-80.13,0A105.81,105.81,0,0,0,932.11,88.4,102.45,102.45,0,0,0,910,121,99.6,99.6,0,0,0,901.91,160.94Z"/><path class="cls-1" d="M1271.69,178.49q-14.85-5.73-30.37-12.82a130,130,0,0,1-28.17-17.38,83.59,83.59,0,0,1-20.59-24.63q-7.92-14.34-7.93-34.25,0-21.25,8.61-37.79a84.76,84.76,0,0,1,23.28-28,105.78,105.78,0,0,1,34.41-17.55A143.33,143.33,0,0,1,1293.28,0a184.1,184.1,0,0,1,29.19,2.36A132.53,132.53,0,0,1,1350.3,10a96.68,96.68,0,0,1,23.62,13.33,60.19,60.19,0,0,1,16.53,19.57,30.41,30.41,0,0,1,2.87,17.21,24.64,24.64,0,0,1-6.24,13.83,29.48,29.48,0,0,1-13.16,8.1,20.75,20.75,0,0,1-15.52-1.35q-14.18-12.48-27.67-18.56T1297.67,56a118.66,118.66,0,0,0-21.77,1.86,53.5,53.5,0,0,0-17.21,6.07,33.8,33.8,0,0,0-11.47,10.63A27.6,27.6,0,0,0,1243,90.09q0,8.77,4.72,14.68a41.32,41.32,0,0,0,12.82,10.29,112.64,112.64,0,0,0,19.23,7.93l24,7.59q20.58,6.4,39.48,14.34A142.48,142.48,0,0,1,1376.28,164a85.61,85.61,0,0,1,22.61,26.66q8.43,15.51,8.43,36.77a82.85,82.85,0,0,1-8.6,37.29,92.71,92.71,0,0,1-23.62,30,112.86,112.86,0,0,1-35.59,19.9,132,132,0,0,1-44.21,7.26,193.4,193.4,0,0,1-33.74-3,139.42,139.42,0,0,1-32.72-10,121.79,121.79,0,0,1-28.52-17.72,81.64,81.64,0,0,1-20.75-26q-6.75-12.81-4-23.11t10.63-15.35q7.92-5.07,19.4-3.54t22.61,11.64q9.1,13.5,26.82,22.27t40,8.77a75.78,75.78,0,0,0,20.24-2.7,59.86,59.86,0,0,0,17.38-7.76,40.53,40.53,0,0,0,12-12,28.62,28.62,0,0,0,4.39-15.69q0-9.1-7.59-16.7a75.89,75.89,0,0,0-19.06-13.5,194.43,194.43,0,0,0-25.14-10.63Q1283.49,182.21,1271.69,178.49Z"/><path class="cls-1" d="M1179.23,336.54a4,4,0,0,1,1.13-2.88,3.65,3.65,0,0,1,2.74-1.17,3.75,3.75,0,0,1,2.89,1.17,4.09,4.09,0,0,1,1.08,2.88v45.31a40.73,40.73,0,0,1,6.71-7.48,42.52,42.52,0,0,1,8.33-5.67,44.93,44.93,0,0,1,9.59-3.65,43.19,43.19,0,0,1,27.21,2,42.71,42.71,0,0,1,22.78,22.78,43.22,43.22,0,0,1,0,33.51,43.46,43.46,0,0,1-22.78,23,42.53,42.53,0,0,1-33.42,0,44.07,44.07,0,0,1-13.65-9.28,43.43,43.43,0,0,1-9.23-13.69,41.89,41.89,0,0,1-3.38-16.75Zm7.84,70.08a34,34,0,0,0,2.75,13.6,36.3,36.3,0,0,0,7.47,11.21,35.48,35.48,0,0,0,11.13,7.66,34.95,34.95,0,0,0,27.6,0,34.92,34.92,0,0,0,11.13-7.66,36.05,36.05,0,0,0,7.38-11.21,35.24,35.24,0,0,0-7.43-38.42,35.2,35.2,0,0,0-11.12-7.47,35.9,35.9,0,0,0-27.56,0,34.71,34.71,0,0,0-18.6,18.6A34.13,34.13,0,0,0,1187.07,406.62Z"/><path class="cls-1" d="M1277.14,347a5.11,5.11,0,0,1,1.53-3.83,5,5,0,0,1,3.6-1.49,5.34,5.34,0,0,1,3.88,1.49,5.11,5.11,0,0,1,1.53,3.83,4.93,4.93,0,0,1-1.53,3.6,5.25,5.25,0,0,1-3.88,1.53,5.23,5.23,0,0,1-5.13-5.13Zm9.1,97.55a4,4,0,0,1-1.13,2.88,3.66,3.66,0,0,1-2.75,1.17,4.08,4.08,0,0,1-4-4V368.88a3.78,3.78,0,0,1,1.17-2.84,3.89,3.89,0,0,1,2.79-1.13,3.71,3.71,0,0,1,2.8,1.13,3.94,3.94,0,0,1,1.08,2.84Z"/><path class="cls-1" d="M1379,364.91a3.88,3.88,0,0,1,2.8,1.27,3.42,3.42,0,0,1,1.12,2.74,3.88,3.88,0,0,1-1.12,2.75l-65.13,69.09h63.86a4,4,0,0,1,2.93,1.12,3.86,3.86,0,0,1,1.13,2.84,3.7,3.7,0,0,1-1.13,2.79,4,4,0,0,1-2.93,1.08h-72.15a3.63,3.63,0,0,1-3.6-2.07,3,3,0,0,1-.54-2.25,6.47,6.47,0,0,1,.32-1.26,2.86,2.86,0,0,1,.67-1.08l65.31-69.27h-61.34a3.8,3.8,0,0,1-2.84-1.13,3.95,3.95,0,0,1,0-5.53,3.89,3.89,0,0,1,2.84-1.09Z"/><circle class="cls-2" cx="1122.5" cy="426.96" r="20.59"/><path d="M72.44,367.59a23.77,23.77,0,0,1,6.5.88,25,25,0,0,1,5.83,2.46,24.51,24.51,0,0,1,5,3.8,23.77,23.77,0,0,1,3.83,4.95A25.52,25.52,0,0,1,96,385.51a24.45,24.45,0,0,1,0,13,25.15,25.15,0,0,1-2.46,5.83,24.6,24.6,0,0,1-8.78,8.77,25,25,0,0,1-5.83,2.46,24.48,24.48,0,0,1-13,0,25,25,0,0,1-5.83-2.46,23.23,23.23,0,0,1-4.91-3.82A24.42,24.42,0,0,1,48.1,392a24.43,24.43,0,0,1,.86-6.49,25,25,0,0,1,2.44-5.83,24.27,24.27,0,0,1,3.79-4.95,23.47,23.47,0,0,1,4.91-3.8,25.19,25.19,0,0,1,5.81-2.46A23.78,23.78,0,0,1,72.44,367.59Zm0,3.22a20.59,20.59,0,0,0-8.25,1.67A21.05,21.05,0,0,0,53,383.75,20.81,20.81,0,0,0,51.32,392a21.26,21.26,0,0,0,2.87,10.71A21.56,21.56,0,0,0,57.47,407a21,21,0,0,0,4.26,3.32,20.48,20.48,0,0,0,5.06,2.14,21.16,21.16,0,0,0,5.65.75,21.16,21.16,0,0,0,15-6.21,22.14,22.14,0,0,0,3.32-4.27A21.13,21.13,0,0,0,93.62,392,20.65,20.65,0,0,0,92,383.75a21.28,21.28,0,0,0-11.27-11.27A20.66,20.66,0,0,0,72.44,370.81Z"/><path d="M136.34,414.35a1.62,1.62,0,0,1-.45,1.18,1.56,1.56,0,0,1-1.17.47,1.62,1.62,0,0,1-1.16-.47,1.58,1.58,0,0,1-.49-1.18V397.81a15.64,15.64,0,0,0-.93-5.4,13.48,13.48,0,0,0-2.63-4.42,12.32,12.32,0,0,0-4-3,12.08,12.08,0,0,0-5.21-1.11,12.89,12.89,0,0,0-9.47,4,13.58,13.58,0,0,0-2.79,4.41,14.49,14.49,0,0,0-1,5.46v16.57a1.68,1.68,0,0,1-.41,1.18,1.46,1.46,0,0,1-1.16.47,1.68,1.68,0,0,1-1.18-.47,1.52,1.52,0,0,1-.51-1.18V397.7a17.55,17.55,0,0,1,1.26-6.64A16.46,16.46,0,0,1,113.7,382a15.9,15.9,0,0,1,6.55-1.35,15.49,15.49,0,0,1,6.49,1.35,16,16,0,0,1,5.1,3.65,16.5,16.5,0,0,1,3.31,5.42,18.53,18.53,0,0,1,1.19,6.64v16.65Z"/><path d="M156.17,412.7a1.54,1.54,0,0,1,1.2.49,1.64,1.64,0,0,1,.45,1.16,1.51,1.51,0,0,1-.43,1.14,1.65,1.65,0,0,1-1.14.47,12.27,12.27,0,0,1-4.76-.9,10.86,10.86,0,0,1-3.75-2.55,11.69,11.69,0,0,1-2.46-4,14.56,14.56,0,0,1-.88-5.21v-34a1.64,1.64,0,0,1,.47-1.22,1.55,1.55,0,0,1,1.14-.46,1.62,1.62,0,0,1,1.65,1.68v34.17a9.6,9.6,0,0,0,2.33,6.76A8,8,0,0,0,156.17,412.7Z"/><path d="M167.05,399.31a13.69,13.69,0,0,0,4.07,9.83,14.14,14.14,0,0,0,4.4,3,13.28,13.28,0,0,0,5.36,1.09,13.72,13.72,0,0,0,9.75-4,13.88,13.88,0,0,0,4.05-9.94V382.78a1.61,1.61,0,0,1,.49-1.19,1.63,1.63,0,0,1,1.17-.46,1.53,1.53,0,0,1,1.18.46,1.74,1.74,0,0,1,.43,1.19v16.57a16.58,16.58,0,0,1-1.2,6.3,17,17,0,0,1-3.3,5.23,17.52,17.52,0,0,1-4.92,3.71,16.32,16.32,0,0,1-6.07,1.75V427a1.63,1.63,0,0,1-.47,1.16,1.61,1.61,0,0,1-2.31,0,1.66,1.66,0,0,1-.45-1.16V416.34a16.53,16.53,0,0,1-6.09-1.75,17,17,0,0,1-8.17-9,16.63,16.63,0,0,1-1.19-6.28V382.78a1.59,1.59,0,0,1,1.65-1.65,1.57,1.57,0,0,1,1.15.46,1.64,1.64,0,0,1,.47,1.19Z"/><path d="M237.13,368a1.62,1.62,0,0,1,1.13.45,1.54,1.54,0,0,1,.49,1.17,1.6,1.6,0,0,1-.47,1.2,1.62,1.62,0,0,1-1.15.45H211.22v21.22h20.21a1.52,1.52,0,0,1,1.2.51,1.71,1.71,0,0,1,.45,1.18,1.53,1.53,0,0,1-.45,1.1,1.56,1.56,0,0,1-1.2.47H211.22v18.64a1.5,1.5,0,0,1-.47,1.16,1.58,1.58,0,0,1-1.14.45,1.5,1.5,0,0,1-1.16-.47,1.58,1.58,0,0,1-.45-1.14V369.54a1.79,1.79,0,0,1,.37-1.05,1.42,1.42,0,0,1,1.24-.53Z"/><path d="M237.17,398.56a17.53,17.53,0,0,1,1.41-7,17.9,17.9,0,0,1,3.84-5.7,18.5,18.5,0,0,1,5.7-3.83,17.49,17.49,0,0,1,6.94-1.4A17.31,17.31,0,0,1,262,382a17.8,17.8,0,0,1,5.64,3.8,18.27,18.27,0,0,1,3.83,5.65,17.82,17.82,0,0,1,1.44,6.93v15.83a1.77,1.77,0,0,1-.45,1.24,1.57,1.57,0,0,1-1.2.48,1.44,1.44,0,0,1-1.14-.48,1.81,1.81,0,0,1-.44-1.24l0-5.63a18.23,18.23,0,0,1-2.8,3.17,18.62,18.62,0,0,1-3.45,2.48,18.25,18.25,0,0,1-4,1.61,16.33,16.33,0,0,1-4.37.58,17.33,17.33,0,0,1-6.94-1.41,18,18,0,0,1-9.54-9.54A17.29,17.29,0,0,1,237.17,398.56Zm3.26,0a14.16,14.16,0,0,0,1.15,5.65,15.23,15.23,0,0,0,3.11,4.65,14.84,14.84,0,0,0,4.63,3.17,14.83,14.83,0,0,0,11.5,0,14.61,14.61,0,0,0,7.74-7.82,14.32,14.32,0,0,0,1.12-5.65,14.5,14.5,0,0,0-14.62-14.66,14.5,14.5,0,0,0-10.37,4.28,14.81,14.81,0,0,0-3.11,4.66A14.5,14.5,0,0,0,240.43,398.56Z"/><path d="M313.78,414.35a1.62,1.62,0,0,1-.45,1.18,1.54,1.54,0,0,1-1.16.47,1.62,1.62,0,0,1-1.16-.47,1.54,1.54,0,0,1-.49-1.18V397.81a15.41,15.41,0,0,0-.94-5.4A13.46,13.46,0,0,0,307,388a12.53,12.53,0,0,0-4-3,12.11,12.11,0,0,0-5.21-1.11,12.89,12.89,0,0,0-9.47,4,13.77,13.77,0,0,0-2.8,4.41,14.68,14.68,0,0,0-1,5.46v16.57a1.73,1.73,0,0,1-.41,1.18,1.48,1.48,0,0,1-1.16.47,1.68,1.68,0,0,1-1.18-.47,1.52,1.52,0,0,1-.51-1.18V397.7a17.55,17.55,0,0,1,1.26-6.64,16.46,16.46,0,0,1,8.73-9.07,15.9,15.9,0,0,1,6.55-1.35,15.41,15.41,0,0,1,6.48,1.35,15.8,15.8,0,0,1,5.1,3.65,16.36,16.36,0,0,1,3.32,5.42,18.53,18.53,0,0,1,1.18,6.64v16.65Z"/><path d="M331,398.9a36.48,36.48,0,0,1-3.45-1.29,13.32,13.32,0,0,1-3-1.82,8.75,8.75,0,0,1-2.17-2.57,7.26,7.26,0,0,1-.83-3.58,7.83,7.83,0,0,1,1-4,8.83,8.83,0,0,1,2.56-2.81,11.32,11.32,0,0,1,3.62-1.67,16,16,0,0,1,4.13-.54,14.71,14.71,0,0,1,6.06,1.22,8.67,8.67,0,0,1,4.21,3.88,1.63,1.63,0,0,1,.19,1,1.36,1.36,0,0,1-.37.79,1.6,1.6,0,0,1-.81.43,1.15,1.15,0,0,1-.88-.17,9.67,9.67,0,0,0-3.6-3.11,10.93,10.93,0,0,0-4.61-.9,14.33,14.33,0,0,0-2.89.3,8.73,8.73,0,0,0-2.64,1,5.67,5.67,0,0,0-1.94,1.8,4.91,4.91,0,0,0-.75,2.78,4.7,4.7,0,0,0,.64,2.49,6,6,0,0,0,1.73,1.78,11.14,11.14,0,0,0,2.51,1.28c.95.35,1.94.67,3,1q2.48.75,4.73,1.6a17.84,17.84,0,0,1,3.95,2,9.32,9.32,0,0,1,2.7,2.8,7.29,7.29,0,0,1,1,3.9,8.55,8.55,0,0,1-.94,3.95,10,10,0,0,1-2.57,3.15,12.54,12.54,0,0,1-3.81,2.1,13.92,13.92,0,0,1-4.65.77,19.8,19.8,0,0,1-3.82-.37,14.57,14.57,0,0,1-3.43-1.15A11,11,0,0,1,322.9,413a9.58,9.58,0,0,1-2-2.74,1.74,1.74,0,0,1-.22-1.27,1.37,1.37,0,0,1,.6-.85,1.59,1.59,0,0,1,1.1-.18,2.22,2.22,0,0,1,1.26.69,8.45,8.45,0,0,0,3.69,3.45,12.76,12.76,0,0,0,5.72,1.2,10.55,10.55,0,0,0,3.24-.49,9.16,9.16,0,0,0,2.78-1.38,6.84,6.84,0,0,0,1.93-2.16,5.52,5.52,0,0,0,.71-2.79,4.3,4.3,0,0,0-.88-2.67,8.42,8.42,0,0,0-2.36-2.06,18,18,0,0,0-3.41-1.57C333.74,399.73,332.38,399.3,331,398.9Z"/><path d="M414.17,414.35a1.5,1.5,0,0,1-.49,1.14,1.58,1.58,0,0,1-1.16.47,1.56,1.56,0,0,1-1.13-.47,1.53,1.53,0,0,1-.48-1.14V374l-17.36,21.67-.16.23a2.22,2.22,0,0,1-.33.26l-.08.08a2,2,0,0,1-.45.18,1.3,1.3,0,0,1-1.35-.45,1.4,1.4,0,0,1-.37-.48L373.52,374v40.31a1.55,1.55,0,0,1-.47,1.14,1.52,1.52,0,0,1-1.14.47,1.59,1.59,0,0,1-1.61-1.61V369.58a1.57,1.57,0,0,1,.46-1.15,1.59,1.59,0,0,1,1.15-.47l.15,0,.15,0a.09.09,0,0,1,.07,0,.56.56,0,0,1,.23.07,3.22,3.22,0,0,1,.56.34l19.2,23.89,19.09-23.89a1.74,1.74,0,0,1,.45-.3,1.68,1.68,0,0,1,.71-.19,1.57,1.57,0,0,1,1.65,1.62Z"/><path d="M422.16,398.56a17.79,17.79,0,0,1,5.25-12.69,18.26,18.26,0,0,1,5.7-3.83A17.94,17.94,0,0,1,447,382a18,18,0,0,1,5.65,3.8,18.24,18.24,0,0,1,3.82,5.65,17.47,17.47,0,0,1,1.44,6.93v15.83a1.77,1.77,0,0,1-.45,1.24,1.57,1.57,0,0,1-1.2.48,1.47,1.47,0,0,1-1.14-.48,1.8,1.8,0,0,1-.43-1.24l0-5.63a18.59,18.59,0,0,1-2.79,3.17,19,19,0,0,1-3.45,2.48,18.33,18.33,0,0,1-4,1.61,16.33,16.33,0,0,1-4.37.58,17.25,17.25,0,0,1-6.93-1.41,17.79,17.79,0,0,1-5.7-3.84,18,18,0,0,1-3.85-5.7A17.46,17.46,0,0,1,422.16,398.56Zm3.26,0a14.16,14.16,0,0,0,1.14,5.65,15.41,15.41,0,0,0,3.11,4.65,14.88,14.88,0,0,0,4.64,3.17,14.21,14.21,0,0,0,5.73,1.16A14.42,14.42,0,0,0,445.8,412a14.7,14.7,0,0,0,4.65-3.17,15,15,0,0,0,3.09-4.65,14.32,14.32,0,0,0,1.13-5.65,14.72,14.72,0,0,0-4.22-10.38A14.82,14.82,0,0,0,434.33,385a14.61,14.61,0,0,0-4.66,3.14,15,15,0,0,0-3.11,4.66A14.5,14.5,0,0,0,425.42,398.56Z"/><path d="M498.77,414.35a1.62,1.62,0,0,1-.45,1.18,1.55,1.55,0,0,1-1.16.47,1.66,1.66,0,0,1-1.17-.47,1.57,1.57,0,0,1-.48-1.18V397.81a15.64,15.64,0,0,0-.94-5.4,13.48,13.48,0,0,0-2.63-4.42,12.32,12.32,0,0,0-4.05-3,12.08,12.08,0,0,0-5.21-1.11,12.89,12.89,0,0,0-9.47,4,13.58,13.58,0,0,0-2.79,4.41,14.48,14.48,0,0,0-1,5.46v16.57a1.69,1.69,0,0,1-.42,1.18,1.46,1.46,0,0,1-1.16.47,1.7,1.7,0,0,1-1.18-.47,1.52,1.52,0,0,1-.51-1.18V397.7a17.55,17.55,0,0,1,1.26-6.64,16.52,16.52,0,0,1,8.74-9.07,15.82,15.82,0,0,1,6.54-1.35,15.49,15.49,0,0,1,6.49,1.35,16,16,0,0,1,5.1,3.65,16.69,16.69,0,0,1,3.32,5.42,18.53,18.53,0,0,1,1.18,6.64v16.65Z"/><path d="M504.84,398.56a17.53,17.53,0,0,1,1.41-7,17.9,17.9,0,0,1,3.84-5.7,18.5,18.5,0,0,1,5.7-3.83,17.49,17.49,0,0,1,6.94-1.4,17.28,17.28,0,0,1,6.94,1.39,17.8,17.8,0,0,1,5.64,3.8,18.27,18.27,0,0,1,3.83,5.65,17.47,17.47,0,0,1,1.44,6.93v15.83a1.77,1.77,0,0,1-.45,1.24,1.57,1.57,0,0,1-1.2.48,1.45,1.45,0,0,1-1.14-.48,1.8,1.8,0,0,1-.43-1.24l0-5.63a18.23,18.23,0,0,1-2.8,3.17,18.88,18.88,0,0,1-3.44,2.48,18.53,18.53,0,0,1-4,1.61,16.33,16.33,0,0,1-4.37.58,17.33,17.33,0,0,1-6.94-1.41,18,18,0,0,1-9.54-9.54A17.29,17.29,0,0,1,504.84,398.56Zm3.27,0a14.16,14.16,0,0,0,1.14,5.65,15.23,15.23,0,0,0,3.11,4.65A14.84,14.84,0,0,0,517,412a14.83,14.83,0,0,0,11.5,0,14.81,14.81,0,0,0,4.65-3.17,15,15,0,0,0,3.09-4.65,14.32,14.32,0,0,0,1.13-5.65,14.51,14.51,0,0,0-14.63-14.66,14.5,14.5,0,0,0-10.37,4.28,14.81,14.81,0,0,0-3.11,4.66A14.5,14.5,0,0,0,508.11,398.56Z"/><path d="M547.29,398.56a17.53,17.53,0,0,1,1.41-7,17.9,17.9,0,0,1,3.84-5.7,18.5,18.5,0,0,1,5.7-3.83,18,18,0,0,1,13.92,0,18.29,18.29,0,0,1,5.68,3.83A18,18,0,0,1,583,398.56a17.25,17.25,0,0,1-.88,5.55,18.4,18.4,0,0,1-2.46,4.84,9.16,9.16,0,0,1,2.23,3.86,15.77,15.77,0,0,1,.59,4.24,13.2,13.2,0,0,1-1,5.33,12.48,12.48,0,0,1-2.75,4,12.15,12.15,0,0,1-8.48,3.43,20.24,20.24,0,0,1-2.13-.13l-2.29-.3c-.78-.12-1.55-.21-2.33-.28a15.19,15.19,0,0,0-2.21-.08,12.58,12.58,0,0,0-2.55.36,6.75,6.75,0,0,0-2.44,1.07,1.32,1.32,0,0,1-1.16.33,2,2,0,0,1-1.07-.52,1.56,1.56,0,0,1-.47-1.07,1.72,1.72,0,0,1,.6-1.29,4.7,4.7,0,0,1,1.18-.72,12.71,12.71,0,0,1,1.47-.52c.51-.15,1-.28,1.55-.38s1-.17,1.5-.22a14.4,14.4,0,0,1,2.37,0c.8.05,1.59.12,2.38.21l2.34.24a22,22,0,0,0,2.25.11,11.52,11.52,0,0,0,4-.67,9.36,9.36,0,0,0,3.17-1.91,8.72,8.72,0,0,0,2.08-3,10.22,10.22,0,0,0,.75-4,11,11,0,0,0-.15-1.95,9.69,9.69,0,0,0-.37-1.46,5.24,5.24,0,0,0-.55-1.14c-.21-.34-.43-.67-.65-1A17.58,17.58,0,0,1,572,415.1a18.07,18.07,0,0,1-13.73-.09,18.5,18.5,0,0,1-5.7-3.83,17.92,17.92,0,0,1-3.84-5.68A17.29,17.29,0,0,1,547.29,398.56Zm3.27,0a14.16,14.16,0,0,0,1.14,5.65,14.72,14.72,0,0,0,7.74,7.78,14.83,14.83,0,0,0,11.5,0,15,15,0,0,0,4.65-3.15,14.79,14.79,0,0,0,3.09-4.63,14.32,14.32,0,0,0,1.13-5.65,14.51,14.51,0,0,0-14.63-14.66,14.5,14.5,0,0,0-10.37,4.28,14.81,14.81,0,0,0-3.11,4.66A14.5,14.5,0,0,0,550.56,398.56Z"/><path d="M592.22,400.06a14.23,14.23,0,0,0,14.29,13.13,14.43,14.43,0,0,0,3.13-.34,14.68,14.68,0,0,0,3-1,14.53,14.53,0,0,0,2.64-1.58,11,11,0,0,0,2.12-2.08,1.44,1.44,0,0,1,2.33.19,1.69,1.69,0,0,1,.41,1.07,1.56,1.56,0,0,1-.56,1.22,18.35,18.35,0,0,1-5.52,4.14,16.56,16.56,0,0,1-7.53,1.63,17.25,17.25,0,0,1-7-1.41A18.07,18.07,0,0,1,590,405.5a18,18,0,0,1,0-13.93,18.19,18.19,0,0,1,9.53-9.53,18,18,0,0,1,13.91,0,18.18,18.18,0,0,1,9.51,9.49,17,17,0,0,1,1.42,6.92,1.6,1.6,0,0,1-.43,1.14,1.46,1.46,0,0,1-1.14.47Zm28.84-2.77a14.18,14.18,0,0,0-4.56-9.53,15,15,0,0,0-4.52-2.83A14.46,14.46,0,0,0,593.47,392a14.05,14.05,0,0,0-1.36,5.25Z"/><path d="M675.73,414.31a1.6,1.6,0,0,1-.47,1.18,1.48,1.48,0,0,1-1.11.47,1.65,1.65,0,0,1-1.18-.47,1.55,1.55,0,0,1-.5-1.18V392.19a7.78,7.78,0,0,0-.85-3.28,8.82,8.82,0,0,0-2-2.63,9.43,9.43,0,0,0-2.83-1.74,8.71,8.71,0,0,0-3.28-.64,8.58,8.58,0,0,0-3.44.71,10,10,0,0,0-2.87,1.9,8.63,8.63,0,0,0-1.94,2.75,7.85,7.85,0,0,0-.72,3.3v21.75a1.64,1.64,0,0,1-1.61,1.65,1.58,1.58,0,0,1-1.14-.47,1.52,1.52,0,0,1-.51-1.18V392.19a7.59,7.59,0,0,0-.79-3.28,8.6,8.6,0,0,0-2-2.63,9.36,9.36,0,0,0-2.84-1.74,8.76,8.76,0,0,0-3.32-.64,8.59,8.59,0,0,0-3.39.68,9.56,9.56,0,0,0-2.83,1.83,9,9,0,0,0-2,2.7,7.9,7.9,0,0,0-.77,3.23v22a1.56,1.56,0,0,1-.47,1.18,1.48,1.48,0,0,1-1.1.47,1.64,1.64,0,0,1-1.18-.47,1.52,1.52,0,0,1-.51-1.18v-21.9a10.6,10.6,0,0,1,1-4.57,12.55,12.55,0,0,1,6.6-6.28,11.82,11.82,0,0,1,4.61-.92,11.91,11.91,0,0,1,6.16,1.67,13,13,0,0,1,2.47,1.91,11.61,11.61,0,0,1,1.91,2.46,12.59,12.59,0,0,1,2-2.46,12.74,12.74,0,0,1,2.53-1.91,12.45,12.45,0,0,1,3-1.24,12.09,12.09,0,0,1,3.23-.43,11.82,11.82,0,0,1,4.57.9A12.37,12.37,0,0,1,672,384a12,12,0,0,1,2.63,3.63,11.58,11.58,0,0,1,1.1,4.47.54.54,0,0,1,0,.26Z"/><path d="M685.4,400.06a14,14,0,0,0,1.41,5.16,14.47,14.47,0,0,0,3.09,4.16,14.5,14.5,0,0,0,12.92,3.47,14.48,14.48,0,0,0,3-1,15,15,0,0,0,2.65-1.58,11,11,0,0,0,2.12-2.08,1.78,1.78,0,0,1,1.61-.41,1.69,1.69,0,0,1,.71.6,1.64,1.64,0,0,1,.41,1.07,1.53,1.53,0,0,1-.56,1.22,18.43,18.43,0,0,1-5.51,4.14,16.63,16.63,0,0,1-7.54,1.63,17.24,17.24,0,0,1-7-1.41,18,18,0,0,1-9.53-9.54,17.91,17.91,0,0,1,0-13.93,18.1,18.1,0,0,1,9.53-9.53,18,18,0,0,1,13.91,0,18.2,18.2,0,0,1,5.66,3.83,18.4,18.4,0,0,1,3.84,5.66,17,17,0,0,1,1.43,6.92,1.65,1.65,0,0,1-.43,1.14,1.47,1.47,0,0,1-1.15.47Zm28.84-2.77a14.18,14.18,0,0,0-4.56-9.53,14.9,14.9,0,0,0-4.51-2.83A14.43,14.43,0,0,0,686.66,392a14.06,14.06,0,0,0-1.37,5.25Z"/><path d="M755.94,414.35a1.62,1.62,0,0,1-.45,1.18,1.55,1.55,0,0,1-1.16.47,1.62,1.62,0,0,1-1.16-.47,1.54,1.54,0,0,1-.49-1.18V397.81a15.64,15.64,0,0,0-.94-5.4,13.46,13.46,0,0,0-2.62-4.42,12.53,12.53,0,0,0-4-3,12.15,12.15,0,0,0-5.22-1.11,12.89,12.89,0,0,0-9.47,4,13.92,13.92,0,0,0-2.79,4.41,14.68,14.68,0,0,0-1,5.46v16.57a1.73,1.73,0,0,1-.41,1.18A1.5,1.5,0,0,1,725,416a1.7,1.7,0,0,1-1.18-.47,1.51,1.51,0,0,1-.5-1.18V397.7a17.54,17.54,0,0,1,1.25-6.64,16.52,16.52,0,0,1,8.74-9.07,15.82,15.82,0,0,1,6.54-1.35,15.45,15.45,0,0,1,6.49,1.35,15.91,15.91,0,0,1,5.1,3.65,16.52,16.52,0,0,1,3.32,5.42,18.53,18.53,0,0,1,1.18,6.64v16.65Z"/><path d="M767.45,381.13h17.81a1.69,1.69,0,0,1,1.19.46,1.55,1.55,0,0,1,.5,1.15,1.52,1.52,0,0,1-.47,1.14,1.66,1.66,0,0,1-1.22.47H767.45V399a13.54,13.54,0,0,0,1.15,5.59,13.75,13.75,0,0,0,3.15,4.5,14.55,14.55,0,0,0,4.68,3,15.1,15.1,0,0,0,5.76,1.09,15.32,15.32,0,0,0,5.12-.83,13.69,13.69,0,0,0,4.48-2.7,2.41,2.41,0,0,1,.6-.41,1.79,1.79,0,0,1,.84-.15,1.38,1.38,0,0,1,.81.38,1.4,1.4,0,0,1,.47,1.27,2.13,2.13,0,0,1-.62,1.28,15.54,15.54,0,0,1-5.29,3.3,18.12,18.12,0,0,1-6.41,1.12,18.45,18.45,0,0,1-12.73-5,16.65,16.65,0,0,1-3.86-5.53,17,17,0,0,1-1.41-6.92V370.36a1.63,1.63,0,0,1,.49-1.2,1.59,1.59,0,0,1,1.16-.48,1.53,1.53,0,0,1,1.16.46,1.7,1.7,0,0,1,.45,1.22Z"/></g></g></svg>