<svg width="66" height="27" viewBox="0 0 66 27" fill="none" xmlns="http://www.w3.org/2000/svg">
<path d="M0.524884 21V0.851852H5.39468V17.0451H13.7766V21H0.524884ZM23.3514 21.2853C21.7642 21.2853 20.4 20.9606 19.2588 20.3113C18.1242 19.6555 17.2486 18.7438 16.6321 17.5764C16.0221 16.4024 15.7172 15.0415 15.7172 13.4936C15.7172 11.9392 16.0221 10.5783 16.6321 9.41088C17.2486 8.23688 18.1242 7.32523 19.2588 6.67593C20.4 6.02006 21.7642 5.69213 23.3514 5.69213C24.9386 5.69213 26.2995 6.02006 27.4342 6.67593C28.5754 7.32523 29.451 8.23688 30.0609 9.41088C30.6774 10.5783 30.9857 11.9392 30.9857 13.4936C30.9857 15.0415 30.6774 16.4024 30.0609 17.5764C29.451 18.7438 28.5754 19.6555 27.4342 20.3113C26.2995 20.9606 24.9386 21.2853 23.3514 21.2853ZM23.3809 17.6551C23.9581 17.6551 24.4467 17.478 24.8468 17.1238C25.2469 16.7697 25.5518 16.2778 25.7617 15.6481C25.9782 15.0185 26.0864 14.2905 26.0864 13.4641C26.0864 12.6246 25.9782 11.89 25.7617 11.2604C25.5518 10.6308 25.2469 10.1389 24.8468 9.78472C24.4467 9.43056 23.9581 9.25347 23.3809 9.25347C22.7841 9.25347 22.2791 9.43056 21.8659 9.78472C21.4592 10.1389 21.1477 10.6308 20.9313 11.2604C20.7214 11.89 20.6165 12.6246 20.6165 13.4641C20.6165 14.2905 20.7214 15.0185 20.9313 15.6481C21.1477 16.2778 21.4592 16.7697 21.8659 17.1238C22.2791 17.478 22.7841 17.6551 23.3809 17.6551ZM40.4941 26.9815C39.0577 26.9815 37.828 26.7814 36.8048 26.3814C35.7817 25.9813 34.9782 25.4336 34.3945 24.7384C33.8108 24.0432 33.4599 23.2562 33.3419 22.3773L37.8968 22.1215C37.9821 22.4298 38.1395 22.6987 38.3691 22.9282C38.6052 23.1578 38.9102 23.3349 39.284 23.4595C39.6644 23.5841 40.1104 23.6464 40.622 23.6464C41.4287 23.6464 42.0944 23.4497 42.6191 23.0561C43.1503 22.6692 43.4159 21.9904 43.4159 21.0197V18.3634H43.2487C43.0585 18.8291 42.7699 19.2456 42.383 19.6128C41.996 19.9801 41.5139 20.2687 40.9368 20.4786C40.3662 20.6885 39.7103 20.7934 38.9692 20.7934C37.8673 20.7934 36.8573 20.5376 35.9391 20.026C35.0274 19.5079 34.2962 18.7078 33.7452 17.6256C33.2009 16.5368 32.9287 15.1366 32.9287 13.4248C32.9287 11.6605 33.2107 10.2078 33.7747 9.06655C34.3388 7.91879 35.0766 7.06944 35.9883 6.51852C36.9065 5.96759 37.8936 5.69213 38.9495 5.69213C39.7431 5.69213 40.4219 5.82986 40.986 6.10532C41.5566 6.37423 42.0255 6.72184 42.3928 7.14815C42.7601 7.57446 43.0388 8.01717 43.229 8.47627H43.3668V5.88889H48.1578V21.059C48.1578 22.338 47.8365 23.4169 47.1937 24.2957C46.551 25.1746 45.6524 25.8403 44.4981 26.2928C43.3438 26.7519 42.0091 26.9815 40.4941 26.9815ZM40.6416 17.2911C41.2254 17.2911 41.7238 17.137 42.137 16.8287C42.5502 16.5204 42.8683 16.0777 43.0913 15.5006C43.3143 14.9234 43.4258 14.2315 43.4258 13.4248C43.4258 12.6049 43.3143 11.8999 43.0913 11.3096C42.8749 10.7128 42.5568 10.2537 42.137 9.93229C41.7238 9.61092 41.2254 9.45023 40.6416 9.45023C40.0448 9.45023 39.5398 9.6142 39.1266 9.94213C38.7134 10.2701 38.3986 10.7324 38.1821 11.3293C37.9723 11.9196 37.8673 12.6181 37.8673 13.4248C37.8673 14.2315 37.9755 14.9234 38.192 15.5006C38.4084 16.0777 38.72 16.5204 39.1266 16.8287C39.5398 17.137 40.0448 17.2911 40.6416 17.2911ZM58.2786 21.2853C56.6915 21.2853 55.3273 20.9606 54.1861 20.3113C53.0514 19.6555 52.1758 18.7438 51.5593 17.5764C50.9494 16.4024 50.6444 15.0415 50.6444 13.4936C50.6444 11.9392 50.9494 10.5783 51.5593 9.41088C52.1758 8.23688 53.0514 7.32523 54.1861 6.67593C55.3273 6.02006 56.6915 5.69213 58.2786 5.69213C59.8658 5.69213 61.2268 6.02006 62.3614 6.67593C63.5026 7.32523 64.3782 8.23688 64.9881 9.41088C65.6046 10.5783 65.9129 11.9392 65.9129 13.4936C65.9129 15.0415 65.6046 16.4024 64.9881 17.5764C64.3782 18.7438 63.5026 19.6555 62.3614 20.3113C61.2268 20.9606 59.8658 21.2853 58.2786 21.2853ZM58.3082 17.6551C58.8853 17.6551 59.3739 17.478 59.774 17.1238C60.1741 16.7697 60.4791 16.2778 60.6889 15.6481C60.9054 15.0185 61.0136 14.2905 61.0136 13.4641C61.0136 12.6246 60.9054 11.89 60.6889 11.2604C60.4791 10.6308 60.1741 10.1389 59.774 9.78472C59.3739 9.43056 58.8853 9.25347 58.3082 9.25347C57.7113 9.25347 57.2063 9.43056 56.7931 9.78472C56.3865 10.1389 56.0749 10.6308 55.8585 11.2604C55.6486 11.89 55.5437 12.6246 55.5437 13.4641C55.5437 14.2905 55.6486 15.0185 55.8585 15.6481C56.0749 16.2778 56.3865 16.7697 56.7931 17.1238C57.2063 17.478 57.7113 17.6551 58.3082 17.6551Z" fill="#13262E"/>
</svg>
