<svg width="144" height="56" viewBox="0 0 144 56" fill="none" xmlns="http://www.w3.org/2000/svg">
<g clip-path="url(#clip0_235_17440)">
<path d="M9.85267 28.426C8.84648 28.0378 7.81691 27.6028 6.766 27.1231C5.71408 26.6433 4.75972 26.0549 3.90294 25.3566C3.04615 24.6594 2.34792 23.825 1.81129 22.8534C1.27363 21.8817 1.00532 20.7221 1.00532 19.3724C1.00532 17.9322 1.29701 16.6516 1.87938 15.5316C2.46277 14.4115 3.25146 13.4633 4.24545 12.6858C5.23944 11.9093 6.40621 11.3137 7.74373 10.9021C9.08125 10.4905 10.5153 10.2852 12.047 10.2852C13.0298 10.2852 14.0187 10.3654 15.0137 10.525C16.0077 10.6856 16.9509 10.9427 17.8432 11.2964C18.7346 11.6511 19.5344 12.1024 20.2439 12.6512C20.9523 13.2001 21.5133 13.8637 21.9239 14.6402C22.1983 15.2348 22.2949 15.8182 22.2156 16.3894C22.1353 16.9616 21.9239 17.4301 21.5814 17.795C21.2155 18.1842 20.7693 18.4587 20.2439 18.6182C19.7174 18.7788 19.1919 18.7331 18.6665 18.481C17.706 17.6354 16.7689 17.0063 15.8542 16.5947C14.9395 16.183 13.8195 15.9777 12.4931 15.9777C11.6923 15.9777 10.9554 16.0408 10.2816 16.1668C9.60671 16.2928 9.02434 16.4981 8.53242 16.7837C8.04051 17.0703 7.65226 17.4301 7.36667 17.8641C7.08107 18.2991 6.93777 18.8245 6.93777 19.4415C6.93777 20.0584 7.09733 20.533 7.41749 20.9335C7.73764 21.3339 8.17162 21.6825 8.72045 21.9793C9.26928 22.2771 9.92076 22.5454 10.6749 22.7853C11.429 23.0251 12.2411 23.2823 13.1101 23.5567C14.5045 23.9917 15.842 24.4775 17.1226 25.0141C18.4022 25.5518 19.5233 26.1972 20.4837 26.9513C21.4442 27.7054 22.2095 28.609 22.7817 29.6609C23.3529 30.7128 23.6385 31.9589 23.6385 33.399C23.6385 34.7488 23.3468 36.0111 22.7634 37.188C22.181 38.366 21.3801 39.3823 20.3628 40.2401C19.3454 41.0969 18.139 41.7717 16.7446 42.2637C15.3501 42.7556 13.852 43.0015 12.2523 43.0015C11.1312 43.0015 9.98886 42.8989 8.8231 42.6926C7.65734 42.4862 6.5485 42.1498 5.49658 41.6813C4.44465 41.2128 3.47912 40.6131 2.59896 39.8813C1.7188 39.1496 1.01548 38.2694 0.490027 37.2409C0.0326685 36.3719 -0.104539 35.5893 0.0784043 34.8921C0.261348 34.1948 0.621137 33.6745 1.15879 33.332C1.69542 32.9895 2.353 32.8695 3.13051 32.9722C3.907 33.0748 4.67333 33.4692 5.42848 34.1552C6.04541 35.0699 6.95403 35.8241 8.15434 36.4186C9.35465 37.0132 10.7095 37.31 12.2187 37.31C12.9271 37.31 13.6132 37.2185 14.2758 37.0356C14.9385 36.8526 15.528 36.5894 16.0423 36.2469C16.5565 35.9044 16.9621 35.4978 17.2598 35.0293C17.5566 34.5607 17.706 34.0292 17.706 33.4346C17.706 32.84 17.4489 32.2516 16.9346 31.7373C16.4203 31.223 15.7739 30.7657 14.9974 30.3662C14.2199 29.9668 13.3682 29.606 12.4423 29.2859C11.5164 28.9657 10.6536 28.6801 9.85368 28.4291L9.85267 28.426Z" fill="#5B6FD0"/>
<path d="M30.7358 42.8931C30.7622 42.9409 30.8313 42.9409 30.8578 42.8931L34.0257 37.2442C34.3794 36.6131 34.537 35.8904 34.478 35.1698L30.811 12.9219H30.6474L27.1085 35.1495C27.0424 35.8833 27.1999 36.6202 27.5617 37.2615L30.7348 42.8931H30.7358Z" fill="#5B6FD0"/>
<path d="M30.7301 16.0236L29.231 13.4269L27.9199 11.1563C27.8365 11.011 27.9412 10.8301 28.1079 10.8301H33.3523C33.52 10.8301 33.6237 11.011 33.5403 11.1563L32.2292 13.4269L30.7301 16.0236Z" fill="#5B6FD0"/>
<path d="M63.274 39.674C63.274 40.4972 62.9935 41.1884 62.4335 41.7484C61.8735 42.3084 61.1935 42.5889 60.3927 42.5889C59.981 42.5889 59.5918 42.5147 59.2269 42.3663C58.861 42.2179 58.5409 42.0126 58.2664 41.7494C57.992 41.4872 57.7694 41.1782 57.5977 40.8235C57.4259 40.4688 57.3405 40.0866 57.3405 39.675V22.082C57.2948 21.2364 57.1007 20.4527 56.7582 19.7332C56.4146 19.0126 55.9573 18.3956 55.3861 17.8814C54.8139 17.3671 54.1573 16.9616 53.4144 16.6638C52.6714 16.367 51.8888 16.2176 51.0656 16.2176C50.1966 16.2176 49.3795 16.3782 48.6141 16.6973C47.8478 17.0175 47.174 17.4464 46.5906 17.983C46.0072 18.5207 45.5448 19.1549 45.2022 19.8866C44.8587 20.6184 44.688 21.3959 44.688 22.2182V39.673C44.688 40.4962 44.4075 41.1874 43.8474 41.7474C43.2874 42.3074 42.6075 42.5879 41.8066 42.5879C41.395 42.5879 41.0057 42.5137 40.6409 42.3653C40.275 42.2169 39.9548 42.0116 39.6804 41.7484C39.406 41.4862 39.1885 41.1772 39.0289 40.8225C38.8683 40.4678 38.7891 40.0856 38.7891 39.674V22.2192C38.7891 20.5727 39.1143 19.0248 39.7668 17.5724C40.4183 16.1211 41.3035 14.8577 42.4246 13.7834C43.5446 12.7092 44.8364 11.8575 46.2999 11.2283C47.7624 10.6002 49.3175 10.2852 50.9639 10.2852C52.8157 10.2852 54.5476 10.6744 56.1595 11.4509C57.7715 12.2284 59.1486 13.2682 60.292 14.5711C61.4578 13.2682 62.8522 12.2274 64.4753 11.4509C66.0984 10.6744 67.8364 10.2852 69.6882 10.2852C71.3347 10.2852 72.8775 10.588 74.3177 11.1938C75.7579 11.7995 77.0263 12.6289 78.1239 13.6798C79.2216 14.7317 80.1007 15.9605 80.7644 17.3661C81.4271 18.7717 81.793 20.2759 81.8621 21.8756C81.8844 21.9671 81.8966 22.0809 81.8966 22.2182V39.673C81.8966 40.4962 81.61 41.1874 81.0398 41.7474C80.4676 42.3074 79.7816 42.5879 78.9827 42.5879C78.5711 42.5879 78.1819 42.5137 77.817 42.3653C77.4511 42.2169 77.131 42.0116 76.8565 41.7484C76.5821 41.4862 76.3646 41.1772 76.2051 40.8225C76.0445 40.4678 75.9652 40.0856 75.9652 39.674V22.1165C75.9195 21.2709 75.7253 20.4822 75.3828 19.7504C75.0393 19.0187 74.5769 18.3956 73.9945 17.8814C73.4111 17.3671 72.7423 16.9616 71.9882 16.6638C71.2341 16.367 70.4454 16.2176 69.6221 16.2176C68.7989 16.2176 67.9696 16.3782 67.2042 16.6973C66.4379 17.0175 65.7692 17.4464 65.198 17.983C64.6258 18.5207 64.1694 19.1549 63.8259 19.8866C63.4824 20.6184 63.2994 21.3959 63.2771 22.2182V39.673L63.274 39.674Z" fill="#5B6FD0"/>
<path d="M85.7656 26.6433C85.7656 24.3799 86.1945 22.2537 87.0513 20.2647C87.9081 18.2757 89.0799 16.5439 90.5659 15.0691C92.0518 13.5944 93.7897 12.4286 95.7787 11.5708C97.7677 10.713 99.8817 10.2852 102.123 10.2852C104.364 10.2852 106.506 10.7141 108.484 11.5708C110.461 12.4276 112.188 13.5944 113.662 15.0691C115.137 16.5439 116.303 18.2757 117.161 20.2647C118.018 22.2537 118.446 24.3799 118.446 26.6433C118.446 28.9068 118.018 31.0279 117.161 33.0047C116.304 34.9825 115.137 36.7144 113.662 38.2003C112.188 39.6872 110.462 40.8581 108.484 41.7148C106.506 42.5726 104.386 43.0005 102.123 43.0005C100.11 43.0005 98.2251 42.6631 96.4648 41.9893C94.7044 41.3154 93.1037 40.3834 91.6635 39.1943V52.8287C91.6635 53.6976 91.4003 54.4284 90.8748 55.023C90.3484 55.6175 89.6511 55.9143 88.7832 55.9143C88.3716 55.9143 87.9823 55.834 87.6174 55.6744C87.2515 55.5149 86.9314 55.2974 86.657 55.023C86.3826 54.7485 86.165 54.4233 86.0055 54.0452C85.8449 53.6682 85.7656 53.2616 85.7656 52.8276V26.6433ZM91.6635 26.6433C91.6635 28.0612 91.9379 29.4038 92.4868 30.6732C93.0356 31.9416 93.7785 33.0514 94.7156 33.9997C95.6527 34.949 96.7615 35.7031 98.0421 36.2631C99.3227 36.8231 100.683 37.1036 102.123 37.1036C103.563 37.1036 104.946 36.8242 106.203 36.2631C107.461 35.7031 108.558 34.949 109.495 33.9997C110.432 33.0514 111.17 31.9426 111.707 30.6732C112.244 29.4038 112.513 28.0612 112.513 26.6433C112.513 25.2255 112.244 23.8484 111.707 22.58C111.169 21.3116 110.432 20.2088 109.495 19.2707C108.557 18.3337 107.46 17.5907 106.203 17.0419C104.945 16.493 103.585 16.2186 102.123 16.2186C100.66 16.2186 99.3278 16.493 98.0594 17.0419C96.791 17.5907 95.6822 18.3337 94.7329 19.2707C93.7836 20.2088 93.0356 21.3116 92.4868 22.58C91.9379 23.8484 91.6635 25.2032 91.6635 26.6433Z" fill="#5B6FD0"/>
<path d="M129.247 28.426C128.241 28.0378 127.211 27.6028 126.161 27.1231C125.109 26.6433 124.154 26.0549 123.297 25.3566C122.441 24.6594 121.742 23.825 121.206 22.8534C120.668 21.8817 120.4 20.7221 120.4 19.3724C120.4 17.9322 120.692 16.6516 121.274 15.5316C121.857 14.4115 122.646 13.4633 123.64 12.6858C124.634 11.9093 125.801 11.3137 127.138 10.9021C128.476 10.4905 129.91 10.2852 131.442 10.2852C132.424 10.2852 133.413 10.3654 134.408 10.525C135.402 10.6856 136.345 10.9427 137.238 11.2964C138.129 11.6511 138.929 12.1024 139.638 12.6512C140.347 13.2001 140.908 13.8637 141.318 14.6402C141.593 15.2348 141.689 15.8182 141.61 16.3894C141.53 16.9616 141.318 17.4301 140.976 17.795C140.61 18.1842 140.164 18.4587 139.638 18.6182C139.112 18.7788 138.586 18.7331 138.061 18.481C137.101 17.6354 136.163 17.0063 135.249 16.5947C134.334 16.183 133.214 15.9777 131.888 15.9777C131.087 15.9777 130.35 16.0408 129.676 16.1668C129.001 16.2928 128.419 16.4981 127.927 16.7837C127.435 17.0703 127.047 17.4301 126.761 17.8641C126.476 18.2991 126.332 18.8245 126.332 19.4415C126.332 20.0584 126.492 20.533 126.812 20.9335C127.132 21.3339 127.566 21.6825 128.115 21.9793C128.664 22.2771 129.315 22.5454 130.069 22.7853C130.824 23.0251 131.636 23.2823 132.505 23.5567C133.899 23.9917 135.237 24.4775 136.517 25.0141C137.797 25.5518 138.918 26.1972 139.878 26.9513C140.839 27.7054 141.604 28.609 142.176 29.6609C142.747 30.7128 143.033 31.9589 143.033 33.399C143.033 34.7488 142.741 36.0111 142.158 37.188C141.576 38.366 140.775 39.3823 139.757 40.2401C138.74 41.0969 137.534 41.7717 136.139 42.2637C134.745 42.7556 133.247 43.0015 131.647 43.0015C130.526 43.0015 129.383 42.8989 128.218 42.6926C127.052 42.4862 125.943 42.1498 124.891 41.6813C123.839 41.2128 122.874 40.6131 121.993 39.8813C121.113 39.1496 120.41 38.2694 119.885 37.2409C119.427 36.3719 119.29 35.5893 119.473 34.8921C119.656 34.1948 120.016 33.6745 120.553 33.332C121.09 32.9895 121.748 32.8695 122.525 32.9722C123.302 33.0748 124.068 33.4692 124.823 34.1552C125.44 35.0699 126.349 35.8241 127.549 36.4186C128.749 37.0132 130.104 37.31 131.613 37.31C132.322 37.31 133.008 37.2185 133.67 37.0356C134.333 36.8526 134.923 36.5894 135.437 36.2469C135.951 35.9044 136.357 35.4978 136.654 35.0293C136.951 34.5607 137.101 34.0292 137.101 33.4346C137.101 32.84 136.843 32.2516 136.329 31.7373C135.815 31.223 135.168 30.7657 134.392 30.3662C133.614 29.9668 132.763 29.606 131.837 29.2859C130.911 28.9657 130.048 28.6801 129.248 28.4291L129.247 28.426Z" fill="#5B6FD0"/>
<path d="M119.85 44.4917C119.85 44.3758 119.887 44.2783 119.964 44.199C120.04 44.1197 120.133 44.0801 120.243 44.0801C120.365 44.0801 120.463 44.1197 120.536 44.199C120.609 44.2783 120.646 44.3758 120.646 44.4917V49.0968C120.841 48.8163 121.068 48.5632 121.327 48.3366C121.587 48.1109 121.869 47.9188 122.174 47.7603C122.479 47.6017 122.804 47.4777 123.149 47.3893C123.493 47.3009 123.849 47.2562 124.215 47.2562C124.82 47.2562 125.385 47.369 125.913 47.5946C126.441 47.8203 126.902 48.1302 127.295 48.5236C127.689 48.9169 128.001 49.3793 128.23 49.9109C128.458 50.4414 128.573 51.0096 128.573 51.6133C128.573 52.217 128.458 52.7851 128.23 53.3157C128.001 53.8462 127.69 54.3107 127.295 54.7071C126.902 55.1034 126.441 55.4185 125.913 55.6502C125.386 55.882 124.82 55.9978 124.215 55.9978C123.61 55.9978 123.044 55.882 122.517 55.6502C121.989 55.4185 121.527 55.1045 121.129 54.7071C120.733 54.3107 120.42 53.8462 120.191 53.3157C119.963 52.7851 119.848 52.217 119.848 51.6133V44.4907L119.85 44.4917ZM120.647 51.6143C120.647 52.1032 120.74 52.5636 120.926 52.9965C121.112 53.4295 121.365 53.8096 121.686 54.1359C122.006 54.4621 122.383 54.7213 122.816 54.9144C123.249 55.1075 123.717 55.203 124.217 55.203C124.717 55.203 125.186 55.1065 125.623 54.9144C126.06 54.7223 126.436 54.4631 126.753 54.1359C127.07 53.8096 127.32 53.4295 127.504 52.9965C127.687 52.5636 127.778 52.1021 127.778 51.6143C127.778 51.1264 127.687 50.6559 127.504 50.2229C127.321 49.7899 127.069 49.4129 126.749 49.0927C126.429 48.7726 126.051 48.5195 125.619 48.3325C125.186 48.1465 124.718 48.053 124.218 48.053C123.718 48.053 123.25 48.1465 122.817 48.3325C122.384 48.5185 122.007 48.7716 121.687 49.0927C121.367 49.4129 121.113 49.7899 120.927 50.2229C120.741 50.6559 120.648 51.1204 120.648 51.6143H120.647Z" fill="#5B6FD0"/>
<path d="M129.797 45.5544C129.797 45.3958 129.849 45.2657 129.952 45.1651C130.056 45.0645 130.178 45.0137 130.318 45.0137C130.477 45.0137 130.608 45.0645 130.712 45.1651C130.815 45.2657 130.867 45.3958 130.867 45.5544C130.867 45.6946 130.815 45.8166 130.712 45.9203C130.608 46.0239 130.477 46.0758 130.318 46.0758C130.178 46.0758 130.056 46.0239 129.952 45.9203C129.849 45.8166 129.797 45.6946 129.797 45.5544ZM130.722 55.4689C130.722 55.5848 130.683 55.6823 130.608 55.7616C130.532 55.8409 130.438 55.8805 130.328 55.8805C130.225 55.8805 130.131 55.8409 130.049 55.7616C129.967 55.6823 129.925 55.5848 129.925 55.4689V47.7792C129.925 47.6633 129.965 47.5667 130.044 47.4905C130.123 47.4143 130.218 47.3757 130.327 47.3757C130.443 47.3757 130.538 47.4143 130.611 47.4905C130.684 47.5667 130.721 47.6633 130.721 47.7792V55.4689H130.722Z" fill="#5B6FD0"/>
<path d="M140.153 47.377C140.256 47.377 140.351 47.4196 140.436 47.505C140.516 47.5782 140.554 47.6717 140.551 47.7845C140.548 47.8973 140.509 47.9908 140.436 48.064L133.818 55.086H140.308C140.43 55.086 140.53 55.1246 140.606 55.2008C140.682 55.2771 140.721 55.3736 140.721 55.4895C140.721 55.6053 140.682 55.6999 140.606 55.773C140.53 55.8462 140.43 55.8828 140.308 55.8828H132.975C132.798 55.8828 132.676 55.8127 132.609 55.6724C132.561 55.6053 132.542 55.5291 132.554 55.4437C132.561 55.4011 132.572 55.3584 132.587 55.3157C132.602 55.273 132.625 55.2364 132.656 55.2059L139.293 48.1656H133.059C132.943 48.1656 132.846 48.128 132.77 48.0508C132.694 47.9746 132.655 47.8811 132.655 47.7713C132.655 47.6554 132.693 47.5609 132.77 47.4877C132.846 47.4146 132.943 47.378 133.059 47.378H140.154L140.153 47.377Z" fill="#5B6FD0"/>
<path d="M114.089 55.7752C115.245 55.7752 116.181 54.8383 116.181 53.6825C116.181 52.5268 115.245 51.5898 114.089 51.5898C112.933 51.5898 111.996 52.5268 111.996 53.6825C111.996 54.8383 112.933 55.7752 114.089 55.7752Z" fill="#D164FF"/>
<path d="M7.36052 47.6465C7.5892 47.6465 7.80975 47.676 8.02217 47.7359C8.23458 47.7959 8.43176 47.8792 8.6147 47.9859C8.79764 48.0927 8.96534 48.2217 9.11779 48.3732C9.27025 48.5246 9.40034 48.6923 9.50706 48.8763C9.61377 49.0602 9.69711 49.2584 9.75708 49.4688C9.81704 49.6802 9.84652 49.8997 9.84652 50.1284C9.84652 50.3571 9.81704 50.5776 9.75708 50.7901C9.69711 51.0025 9.61377 51.1997 9.50706 51.3826C9.40034 51.5655 9.27025 51.7332 9.11779 51.8857C8.96534 52.0381 8.79764 52.1682 8.6147 52.275C8.43176 52.3817 8.23458 52.465 8.02217 52.525C7.80975 52.5849 7.5892 52.6144 7.36052 52.6144C7.13184 52.6144 6.91129 52.5849 6.69888 52.525C6.48646 52.465 6.28928 52.3817 6.10634 52.275C5.9234 52.1682 5.75672 52.0381 5.60731 51.8857C5.45689 51.7332 5.32883 51.5655 5.22212 51.3826C5.1154 51.1997 5.03307 51.0025 4.97413 50.7901C4.91518 50.5776 4.88672 50.3571 4.88672 50.1284C4.88672 49.8997 4.91619 49.6802 4.97413 49.4688C5.03206 49.2574 5.1154 49.0602 5.22212 48.8763C5.32883 48.6923 5.45689 48.5246 5.60731 48.3732C5.75672 48.2217 5.9234 48.0927 6.10634 47.9859C6.28928 47.8792 6.48646 47.7959 6.69684 47.7359C6.90723 47.676 7.12879 47.6465 7.36052 47.6465ZM7.36052 47.9748C7.06273 47.9748 6.78323 48.0317 6.52203 48.1445C6.25981 48.2573 6.03316 48.4108 5.84006 48.6059C5.64695 48.8 5.4945 49.0287 5.3827 49.2899C5.2709 49.5521 5.215 49.8316 5.215 50.1284C5.215 50.3266 5.24041 50.5177 5.29123 50.7016C5.34204 50.8856 5.41421 51.0574 5.50669 51.2159C5.59918 51.3745 5.71098 51.5198 5.84006 51.6509C5.96913 51.782 6.11346 51.8938 6.27302 51.9883C6.43157 52.0829 6.60334 52.155 6.7873 52.2058C6.97126 52.2567 7.16233 52.2821 7.36052 52.2821C7.55871 52.2821 7.74877 52.2567 7.93171 52.2058C8.11465 52.155 8.28642 52.0829 8.44599 51.9883C8.60555 51.8948 8.75191 51.782 8.882 51.6509C9.01209 51.5198 9.12491 51.3755 9.21943 51.2159C9.31293 51.0574 9.38611 50.8856 9.43693 50.7016C9.48775 50.5177 9.51315 50.3266 9.51315 50.1284C9.51315 49.8316 9.45624 49.5521 9.34342 49.2899C9.23061 49.0287 9.07714 48.8 8.882 48.6059C8.68788 48.4118 8.4592 48.2583 8.19799 48.1445C7.93578 48.0317 7.65628 47.9748 7.3595 47.9748H7.36052Z" fill="black"/>
<path d="M13.8573 52.3998C13.8573 52.4486 13.842 52.4882 13.8116 52.5197C13.7811 52.5512 13.7414 52.5675 13.6937 52.5675C13.6479 52.5675 13.6083 52.5512 13.5758 52.5197C13.5422 52.4882 13.526 52.4476 13.526 52.3998V50.7187C13.526 50.5256 13.4945 50.3427 13.4304 50.1699C13.3674 49.9971 13.278 49.8477 13.1641 49.7207C13.0503 49.5936 12.9121 49.493 12.7525 49.4178C12.593 49.3426 12.4161 49.305 12.223 49.305C12.0299 49.305 11.851 49.3416 11.6874 49.4138C11.5237 49.4859 11.3815 49.5855 11.2605 49.7126C11.1396 49.8396 11.045 49.989 10.977 50.1608C10.9089 50.3325 10.8743 50.5175 10.8743 50.7157V52.3998C10.8743 52.4486 10.8601 52.4882 10.8326 52.5197C10.8042 52.5512 10.7655 52.5675 10.7147 52.5675C10.669 52.5675 10.6294 52.5512 10.5948 52.5197C10.5602 52.4882 10.543 52.4476 10.543 52.3998V50.7076C10.543 50.4687 10.5857 50.2441 10.671 50.0327C10.7564 49.8213 10.8743 49.6384 11.0257 49.4818C11.1772 49.3253 11.355 49.2013 11.5593 49.1099C11.7636 49.0184 11.9852 48.9727 12.224 48.9727C12.4629 48.9727 12.6824 49.0184 12.8836 49.1099C13.0838 49.2013 13.2566 49.3253 13.402 49.4818C13.5473 49.6384 13.6591 49.8213 13.7394 50.0327C13.8197 50.2441 13.8593 50.4687 13.8593 50.7076V52.3998H13.8573Z" fill="black"/>
<path d="M15.8681 52.2302C15.9189 52.2302 15.9596 52.2464 15.9901 52.28C16.0206 52.3135 16.0358 52.3521 16.0358 52.3979C16.0358 52.4466 16.0216 52.4853 15.9921 52.5137C15.9626 52.5432 15.924 52.5584 15.8763 52.5615C15.7004 52.5615 15.5398 52.531 15.3925 52.47C15.2451 52.409 15.1181 52.3226 15.0113 52.2108C14.9046 52.099 14.8213 51.9649 14.7613 51.8063C14.7013 51.6488 14.6719 51.472 14.6719 51.2768V47.8202C14.6719 47.7694 14.6881 47.7277 14.7196 47.6962C14.7512 47.6647 14.7898 47.6484 14.8355 47.6484C14.8812 47.6484 14.9209 47.6647 14.9534 47.6962C14.9859 47.7277 15.0032 47.7694 15.0032 47.8202V51.2921C15.0052 51.5848 15.0845 51.8134 15.24 51.9801C15.3945 52.1468 15.6049 52.2302 15.8691 52.2302H15.8681Z" fill="black"/>
<path d="M16.9738 50.8721C16.9738 51.0683 17.0104 51.2512 17.0846 51.423C17.1578 51.5947 17.2594 51.7441 17.3875 51.8712C17.5155 51.9982 17.6649 52.0988 17.8357 52.172C18.0054 52.2462 18.1874 52.2828 18.3805 52.2828C18.5736 52.2828 18.7555 52.2462 18.9252 52.174C19.095 52.1019 19.2444 52.0023 19.3714 51.8752C19.4984 51.7482 19.5991 51.5988 19.6722 51.426C19.7464 51.2532 19.783 51.0662 19.783 50.866V49.1931C19.783 49.1453 19.7993 49.1047 19.8328 49.0732C19.8664 49.0417 19.905 49.0254 19.9507 49.0254C20.0015 49.0254 20.0412 49.0417 20.0707 49.0732C20.1001 49.1047 20.1144 49.1453 20.1144 49.1931V50.8772C20.1144 51.1038 20.0737 51.3173 19.9924 51.5175C19.9111 51.7187 19.7993 51.8956 19.657 52.049C19.5147 52.2025 19.348 52.3285 19.158 52.4261C18.9669 52.5237 18.7616 52.5826 18.541 52.603V53.6894C18.541 53.7352 18.5248 53.7748 18.4933 53.8073C18.4618 53.8399 18.4231 53.8571 18.3774 53.8571C18.3296 53.8571 18.29 53.8409 18.2595 53.8073C18.229 53.7738 18.2138 53.7352 18.2138 53.6894V52.603C17.9932 52.5826 17.7859 52.5237 17.5948 52.4261C17.4027 52.3285 17.2371 52.2015 17.0958 52.047C16.9545 51.8925 16.8437 51.7147 16.7645 51.5155C16.6842 51.3162 16.6445 51.1028 16.6445 50.8772V49.1931C16.6445 49.1453 16.6608 49.1047 16.6923 49.0732C16.7238 49.0417 16.7645 49.0254 16.8122 49.0254C16.858 49.0254 16.8966 49.0417 16.9281 49.0732C16.9596 49.1047 16.9759 49.1453 16.9759 49.1931V50.8741L16.9738 50.8721Z" fill="black"/>
<path d="M24.0974 47.6836C24.1411 47.6836 24.1787 47.6988 24.2112 47.7293C24.2447 47.7598 24.261 47.7995 24.261 47.8472C24.261 47.898 24.2447 47.9387 24.2132 47.9692C24.1817 47.9997 24.1431 48.0149 24.0974 48.0149H21.464V50.1726H23.518C23.5688 50.1726 23.6095 50.1899 23.64 50.2245C23.6705 50.259 23.6857 50.2987 23.6857 50.3444C23.6857 50.3871 23.6705 50.4247 23.64 50.4572C23.6095 50.4887 23.5688 50.505 23.518 50.505H21.464V52.3995C21.464 52.4483 21.4477 52.4869 21.4162 52.5174C21.3847 52.5479 21.3461 52.5631 21.3004 52.5631C21.2516 52.5631 21.2129 52.5468 21.1825 52.5153C21.152 52.4838 21.1367 52.4452 21.1367 52.3995V47.8452C21.1367 47.8096 21.1489 47.774 21.1753 47.7385C21.2007 47.7029 21.2424 47.6856 21.3014 47.6856H24.0984L24.0974 47.6836Z" fill="black"/>
<path d="M24.1055 50.7959C24.1055 50.5439 24.1532 50.307 24.2488 50.0855C24.3443 49.8629 24.4744 49.6698 24.6391 49.5062C24.8037 49.3425 24.9968 49.2124 25.2184 49.1179C25.4389 49.0224 25.6747 48.9746 25.9237 48.9746C26.1727 48.9746 26.4106 49.0214 26.6291 49.1159C26.8476 49.2104 27.0387 49.3385 27.2023 49.5031C27.3659 49.6678 27.496 49.8578 27.5916 50.0763C27.6871 50.2949 27.7359 50.5296 27.7379 50.7817V52.3906C27.7379 52.4414 27.7227 52.4831 27.6922 52.5166C27.6617 52.5501 27.621 52.5664 27.5702 52.5664C27.5194 52.5664 27.4828 52.5501 27.4543 52.5166C27.4249 52.4841 27.4106 52.4414 27.4106 52.3906L27.4066 51.8194C27.3253 51.9363 27.2308 52.044 27.123 52.1416C27.0153 52.2391 26.8984 52.3235 26.7724 52.3926C26.6464 52.4627 26.5122 52.5176 26.3689 52.5562C26.2256 52.5959 26.0772 52.6152 25.9247 52.6152C25.6757 52.6152 25.441 52.5674 25.2194 52.4719C24.9978 52.3763 24.8047 52.2462 24.6401 52.0816C24.4744 51.917 24.3443 51.7228 24.2498 51.5023C24.1553 51.2817 24.1065 51.0459 24.1065 50.7969L24.1055 50.7959ZM24.4368 50.7959C24.4368 50.9992 24.4754 51.1903 24.5527 51.3691C24.6299 51.548 24.7356 51.7055 24.8687 51.8417C25.0019 51.9779 25.1594 52.0846 25.3393 52.1639C25.5192 52.2432 25.7144 52.2818 25.9227 52.2818C26.1311 52.2818 26.3262 52.2422 26.5081 52.1639C26.6901 52.0857 26.8476 51.9779 26.9807 51.8417C27.1139 51.7055 27.2186 51.548 27.2948 51.3691C27.371 51.1903 27.4086 50.9992 27.4086 50.7959C27.4086 50.5926 27.37 50.3965 27.2948 50.2146C27.2186 50.0326 27.1139 49.8751 26.9807 49.7399C26.8476 49.6058 26.6901 49.499 26.5081 49.4218C26.3262 49.3446 26.1311 49.3059 25.9227 49.3059C25.7144 49.3059 25.5233 49.3446 25.3414 49.4218C25.1594 49.499 25.0019 49.6058 24.8687 49.7399C24.7356 49.8751 24.6299 50.0326 24.5527 50.2146C24.4754 50.3965 24.4368 50.5896 24.4368 50.7959Z" fill="black"/>
<path d="M31.8885 52.3998C31.8885 52.4486 31.8733 52.4882 31.8428 52.5197C31.8123 52.5512 31.7727 52.5675 31.7249 52.5675C31.6792 52.5675 31.6395 52.5512 31.607 52.5197C31.5745 52.4882 31.5572 52.4476 31.5572 52.3998V50.7187C31.5572 50.5256 31.5257 50.3427 31.4617 50.1699C31.3987 49.9971 31.3092 49.8477 31.1954 49.7207C31.0816 49.5936 30.9444 49.493 30.7838 49.4178C30.6232 49.3426 30.4474 49.305 30.2542 49.305C30.0611 49.305 29.8823 49.3416 29.7186 49.4138C29.555 49.4859 29.4127 49.5855 29.2918 49.7126C29.1708 49.8396 29.0763 49.989 29.0082 50.1608C28.9391 50.3325 28.9055 50.5175 28.9055 50.7157V52.3998C28.9055 52.4486 28.8913 52.4882 28.8639 52.5197C28.8364 52.5512 28.7968 52.5675 28.746 52.5675C28.7002 52.5675 28.6606 52.5512 28.6261 52.5197C28.5915 52.4882 28.5742 52.4476 28.5742 52.3998V50.7076C28.5742 50.4687 28.6169 50.2441 28.7023 50.0327C28.7877 49.8213 28.9055 49.6384 29.057 49.4818C29.2084 49.3253 29.3863 49.2013 29.5906 49.1099C29.7949 49.0184 30.0164 48.9727 30.2553 48.9727C30.4941 48.9727 30.7136 49.0184 30.9149 49.1099C31.1151 49.2013 31.2879 49.3253 31.4332 49.4818C31.5775 49.6384 31.6904 49.8213 31.7706 50.0327C31.8509 50.2441 31.8906 50.4687 31.8906 50.7076V52.3998H31.8885Z" fill="black"/>
<path d="M33.6358 50.8285C33.5159 50.7899 33.399 50.7462 33.2852 50.6974C33.1713 50.6476 33.0677 50.5866 32.9762 50.5124C32.8847 50.4393 32.8105 50.3518 32.7546 50.2512C32.6987 50.1506 32.6713 50.0297 32.6713 49.8874C32.6713 49.7329 32.7038 49.5977 32.7699 49.4829C32.8359 49.368 32.9233 49.2735 33.0311 49.1973C33.1388 49.121 33.2618 49.0641 33.399 49.0275C33.5362 48.991 33.6754 48.9727 33.8177 48.9727C34.0413 48.9727 34.2466 49.0143 34.4336 49.0967C34.6207 49.179 34.7629 49.3111 34.8625 49.491C34.8798 49.5266 34.8869 49.5611 34.8819 49.5936C34.8768 49.6272 34.8636 49.6536 34.8432 49.6739C34.8199 49.6973 34.7934 49.7115 34.7609 49.7176C34.7284 49.7237 34.6989 49.7176 34.6715 49.7004C34.5597 49.551 34.4377 49.4453 34.3056 49.3843C34.1735 49.3233 34.0169 49.2928 33.837 49.2928C33.7405 49.2928 33.6429 49.303 33.5433 49.3233C33.4447 49.3436 33.3543 49.3762 33.275 49.4229C33.1957 49.4697 33.1297 49.5296 33.0789 49.6058C33.028 49.6821 33.0026 49.7766 33.0026 49.8884C33.0026 49.987 33.024 50.0723 33.0677 50.1415C33.1104 50.2116 33.1693 50.2716 33.2435 50.3224C33.3167 50.3732 33.402 50.4169 33.4986 50.4525C33.5952 50.488 33.6958 50.5206 33.7994 50.5511C33.9671 50.6019 34.1267 50.6557 34.2792 50.7127C34.4316 50.7696 34.5658 50.8387 34.6816 50.919C34.7975 50.9993 34.889 51.0938 34.9561 51.2025C35.0231 51.3113 35.0567 51.4444 35.0567 51.5989C35.0567 51.7443 35.0252 51.8774 34.9611 52.0014C34.8981 52.1244 34.8107 52.2311 34.6999 52.3215C34.5891 52.412 34.4601 52.4831 34.3127 52.535C34.1653 52.5868 34.0078 52.6132 33.8401 52.6132C33.7049 52.6132 33.5758 52.6 33.4519 52.5746C33.3268 52.5492 33.211 52.5106 33.1032 52.4587C32.9955 52.4069 32.899 52.3408 32.8156 52.2626C32.7313 52.1843 32.6632 52.0908 32.6093 51.9841C32.5839 51.9363 32.5758 51.8926 32.5869 51.854C32.5971 51.8154 32.6174 51.7869 32.6479 51.7686C32.6784 51.7503 32.716 51.7432 32.7607 51.7493C32.8055 51.7554 32.8481 51.7788 32.8888 51.8195C32.9752 51.9719 33.1002 52.0888 33.2638 52.1701C33.4275 52.2514 33.6216 52.2921 33.8452 52.2921C33.959 52.2921 34.0698 52.2758 34.1745 52.2423C34.2802 52.2097 34.3737 52.162 34.457 52.101C34.5393 52.04 34.6054 51.9668 34.6532 51.8815C34.7009 51.7961 34.7253 51.7016 34.7253 51.5979C34.7253 51.4942 34.6959 51.4058 34.6359 51.3275C34.5759 51.2493 34.4956 51.1792 34.396 51.1182C34.2954 51.0572 34.1806 51.0043 34.0495 50.9576C33.9184 50.9108 33.7811 50.8682 33.6358 50.8285Z" fill="black"/>
<path d="M42.0887 52.3974C42.0887 52.4432 42.0724 52.4818 42.0389 52.5133C42.0053 52.5448 41.9667 52.5611 41.921 52.5611C41.8783 52.5611 41.8397 52.5448 41.8071 52.5133C41.7736 52.4818 41.7573 52.4432 41.7573 52.3974V48.3005L39.9929 50.504L39.9777 50.5273C39.9696 50.5355 39.9584 50.5436 39.9431 50.5538L39.935 50.5609C39.9147 50.5711 39.8994 50.5771 39.8893 50.5802C39.8385 50.5934 39.7927 50.5782 39.7521 50.5345C39.7368 50.5223 39.7236 50.505 39.7134 50.4847L37.9562 48.3005V52.3974C37.9562 52.4432 37.9399 52.4818 37.9084 52.5133C37.8769 52.5448 37.8383 52.5611 37.7925 52.5611C37.7468 52.5611 37.7082 52.5448 37.6767 52.5133C37.6452 52.4818 37.6289 52.4432 37.6289 52.3974V47.8472C37.6289 47.8015 37.6452 47.7629 37.6767 47.7314C37.7082 47.6999 37.7468 47.6836 37.7925 47.6836C37.7976 47.6836 37.8027 47.6836 37.8078 47.6856C37.8129 47.6866 37.8179 47.6877 37.823 47.6877C37.8251 47.6877 37.8281 47.6887 37.8312 47.6917C37.8362 47.6917 37.8434 47.6948 37.8535 47.6999C37.8708 47.708 37.8901 47.7192 37.9104 47.7344L39.8618 50.1625L41.802 47.7344C41.8122 47.7242 41.8275 47.7141 41.8478 47.7039C41.8732 47.6917 41.8976 47.6846 41.9199 47.6846C41.9708 47.6846 42.0114 47.7009 42.0419 47.7324C42.0724 47.7639 42.0876 47.8025 42.0876 47.8482V52.3985L42.0887 52.3974Z" fill="black"/>
<path d="M42.9062 50.7959C42.9062 50.5439 42.954 50.307 43.0496 50.0855C43.1451 49.8629 43.2752 49.6698 43.4398 49.5062C43.6045 49.3425 43.7986 49.2124 44.0192 49.1179C44.2397 49.0234 44.4755 48.9746 44.7245 48.9746C44.9735 48.9746 45.2113 49.0214 45.4299 49.1159C45.6484 49.2104 45.8394 49.3385 46.0031 49.5031C46.1667 49.6678 46.2968 49.8578 46.3923 50.0763C46.4879 50.2949 46.5367 50.5296 46.5387 50.7817V52.3906C46.5387 52.4414 46.5234 52.4831 46.493 52.5166C46.4625 52.5501 46.4218 52.5664 46.371 52.5664C46.3202 52.5664 46.2836 52.5501 46.2551 52.5166C46.2257 52.4841 46.2114 52.4414 46.2114 52.3906L46.2074 51.8194C46.1261 51.9363 46.0315 52.044 45.9238 52.1416C45.8161 52.2391 45.6992 52.3235 45.5732 52.3926C45.4471 52.4627 45.313 52.5176 45.1697 52.5562C45.0264 52.5959 44.878 52.6152 44.7255 52.6152C44.4765 52.6152 44.2417 52.5674 44.0202 52.4719C43.7986 52.3763 43.6055 52.2462 43.4409 52.0816C43.2762 51.917 43.1451 51.7228 43.0506 51.5023C42.956 51.2817 42.9073 51.0459 42.9073 50.7969L42.9062 50.7959ZM43.2376 50.7959C43.2376 50.9992 43.2762 51.1903 43.3534 51.3691C43.4307 51.548 43.5364 51.7055 43.6695 51.8417C43.8027 51.9779 43.9602 52.0846 44.1401 52.1639C44.32 52.2422 44.5151 52.2818 44.7235 52.2818C44.9318 52.2818 45.127 52.2422 45.3089 52.1639C45.4908 52.0857 45.6484 51.9779 45.7815 51.8417C45.9147 51.7055 46.0193 51.548 46.0956 51.3691C46.1718 51.1903 46.2094 50.9992 46.2094 50.7959C46.2094 50.5926 46.1708 50.3965 46.0956 50.2146C46.0193 50.0326 45.9147 49.8751 45.7815 49.7399C45.6484 49.6058 45.4908 49.499 45.3089 49.4218C45.127 49.3446 44.9318 49.3059 44.7235 49.3059C44.5151 49.3059 44.3241 49.3446 44.1421 49.4218C43.9602 49.499 43.8027 49.6058 43.6695 49.7399C43.5364 49.8751 43.4307 50.0326 43.3534 50.2146C43.2762 50.3965 43.2376 50.5896 43.2376 50.7959Z" fill="black"/>
<path d="M50.6932 52.3998C50.6932 52.4486 50.678 52.4882 50.6475 52.5197C50.617 52.5512 50.5774 52.5675 50.5296 52.5675C50.4839 52.5675 50.4442 52.5512 50.4117 52.5197C50.3792 52.4882 50.3619 52.4476 50.3619 52.3998V50.7187C50.3619 50.5256 50.3304 50.3427 50.2664 50.1699C50.2033 49.9971 50.1139 49.8477 50.0001 49.7207C49.8862 49.5936 49.749 49.493 49.5885 49.4178C49.4279 49.3426 49.252 49.305 49.0589 49.305C48.8658 49.305 48.687 49.3416 48.5233 49.4138C48.3597 49.4859 48.2174 49.5855 48.0965 49.7126C47.9755 49.8396 47.881 49.989 47.8129 50.1608C47.7438 50.3325 47.7102 50.5175 47.7102 50.7157V52.3998C47.7102 52.4486 47.696 52.4882 47.6686 52.5197C47.6411 52.5512 47.6015 52.5675 47.5507 52.5675C47.5049 52.5675 47.4653 52.5512 47.4307 52.5197C47.3962 52.4882 47.3789 52.4476 47.3789 52.3998V50.7076C47.3789 50.4687 47.4216 50.2441 47.507 50.0327C47.5923 49.8213 47.7102 49.6384 47.8617 49.4818C48.0131 49.3253 48.191 49.2013 48.3953 49.1099C48.5995 49.0184 48.8211 48.9727 49.06 48.9727C49.2988 48.9727 49.5183 49.0184 49.7196 49.1099C49.9198 49.2013 50.0926 49.3253 50.2379 49.4818C50.3822 49.6384 50.495 49.8213 50.5753 50.0327C50.6556 50.2441 50.6953 50.4687 50.6953 50.7076V52.3998H50.6932Z" fill="black"/>
<path d="M51.3086 50.7959C51.3086 50.5439 51.3564 50.307 51.4519 50.0855C51.5474 49.8629 51.6775 49.6698 51.8422 49.5062C52.0068 49.3425 52.1999 49.2124 52.4215 49.1179C52.642 49.0224 52.8778 48.9746 53.1268 48.9746C53.3759 48.9746 53.6137 49.0214 53.8322 49.1159C54.0507 49.2104 54.2418 49.3385 54.4054 49.5031C54.5691 49.6678 54.6991 49.8578 54.7947 50.0763C54.8902 50.2949 54.939 50.5296 54.941 50.7817V52.3906C54.941 52.4414 54.9258 52.4831 54.8953 52.5166C54.8648 52.5501 54.8242 52.5664 54.7733 52.5664C54.7225 52.5664 54.6859 52.5501 54.6575 52.5166C54.628 52.4841 54.6138 52.4414 54.6138 52.3906L54.6097 51.8194C54.5284 51.9363 54.4339 52.044 54.3261 52.1416C54.2184 52.2391 54.1015 52.3235 53.9755 52.3926C53.8495 52.4627 53.7153 52.5176 53.571 52.5562C53.4277 52.5959 53.2793 52.6152 53.1268 52.6152C52.8778 52.6152 52.6431 52.5674 52.4215 52.4719C52.1999 52.3763 52.0068 52.2462 51.8422 52.0816C51.6765 51.917 51.5464 51.7228 51.4519 51.5023C51.3574 51.2817 51.3086 51.0459 51.3086 50.7969V50.7959ZM51.6399 50.7959C51.6399 50.9992 51.6785 51.1903 51.7558 51.3691C51.833 51.548 51.9387 51.7055 52.0719 51.8417C52.205 51.9779 52.3625 52.0846 52.5424 52.1639C52.7223 52.2432 52.9175 52.2818 53.1258 52.2818C53.3342 52.2818 53.5293 52.2422 53.7112 52.1639C53.8932 52.0857 54.0507 51.9779 54.1839 51.8417C54.317 51.7055 54.4217 51.548 54.4979 51.3691C54.5741 51.1903 54.6117 50.9992 54.6117 50.7959C54.6117 50.5926 54.5731 50.3965 54.4979 50.2146C54.4217 50.0326 54.317 49.8751 54.1839 49.7399C54.0507 49.6058 53.8932 49.499 53.7112 49.4218C53.5293 49.3446 53.3342 49.3059 53.1258 49.3059C52.9175 49.3059 52.7264 49.3446 52.5445 49.4218C52.3626 49.499 52.205 49.6058 52.0719 49.7399C51.9387 49.8751 51.833 50.0326 51.7558 50.2146C51.6785 50.3965 51.6399 50.5896 51.6399 50.7959Z" fill="black"/>
<path d="M55.6213 50.7959C55.6213 50.5439 55.669 50.307 55.7646 50.0855C55.8601 49.8629 55.9902 49.6698 56.1548 49.5062C56.3195 49.3425 56.5136 49.2124 56.7342 49.1179C56.9547 49.0234 57.1905 48.9746 57.4395 48.9746C57.6885 48.9746 57.9274 49.0224 58.1479 49.1179C58.3695 49.2135 58.5616 49.3425 58.7252 49.5062C58.8888 49.6698 59.0179 49.8629 59.1124 50.0855C59.2059 50.3081 59.2537 50.5449 59.2537 50.7959C59.2537 50.9941 59.2242 51.1821 59.1643 51.36C59.1043 51.5379 59.021 51.7015 58.9142 51.8519C59.026 51.9708 59.1012 52.1019 59.1409 52.2442C59.1805 52.3865 59.1998 52.5298 59.1998 52.6752C59.1998 52.8754 59.1653 53.0563 59.0951 53.2169C59.025 53.3774 58.9315 53.5136 58.8146 53.6265C58.6978 53.7393 58.5646 53.8257 58.4162 53.8856C58.2678 53.9456 58.1133 53.9751 57.9528 53.9751C57.8847 53.9751 57.8115 53.971 57.7353 53.9619C57.659 53.9527 57.5818 53.9425 57.5025 53.9314C57.4232 53.9202 57.345 53.91 57.2657 53.9029C57.1864 53.8948 57.1122 53.8927 57.0411 53.8948C56.9628 53.8968 56.8765 53.909 56.7819 53.9314C56.6884 53.9527 56.6051 53.9893 56.5339 54.0401C56.4984 54.0706 56.4587 54.0818 56.416 54.0747C56.3723 54.0665 56.3368 54.0493 56.3073 54.0208C56.2778 53.9923 56.2626 53.9568 56.2595 53.9121C56.2575 53.8673 56.2768 53.8236 56.3205 53.7809C56.353 53.7525 56.3937 53.7291 56.4404 53.7088C56.4872 53.6885 56.537 53.6702 56.5888 53.6559C56.6407 53.6407 56.6935 53.6275 56.7474 53.6173C56.8002 53.6071 56.851 53.599 56.8998 53.5939C56.9781 53.5868 57.0584 53.5848 57.1397 53.5899C57.221 53.595 57.3013 53.6021 57.3816 53.6112C57.4619 53.6204 57.5411 53.6285 57.6194 53.6356C57.6977 53.6427 57.7739 53.6468 57.8481 53.6468C57.9955 53.6468 58.1316 53.6244 58.2556 53.5787C58.3796 53.5329 58.4874 53.4679 58.5778 53.3846C58.6683 53.3012 58.7384 53.1986 58.7892 53.0776C58.84 52.9567 58.8655 52.8215 58.8655 52.6721C58.8655 52.5959 58.8604 52.5298 58.8502 52.4739C58.84 52.418 58.8278 52.3682 58.8116 52.3255C58.7963 52.2828 58.778 52.2432 58.7567 52.2097C58.7354 52.1751 58.713 52.1416 58.6896 52.109C58.527 52.2666 58.339 52.3896 58.1255 52.479C57.9121 52.5684 57.6824 52.6121 57.4354 52.6121C57.1885 52.6121 56.9517 52.5644 56.7301 52.4688C56.5085 52.3733 56.3154 52.2442 56.1508 52.0806C55.9861 51.9169 55.855 51.7238 55.7605 51.5033C55.666 51.2827 55.6172 51.047 55.6172 50.7979L55.6213 50.7959ZM55.9526 50.7959C55.9526 50.9992 55.9912 51.1903 56.0684 51.3691C56.1457 51.548 56.2514 51.7055 56.3845 51.8397C56.5177 51.9749 56.6752 52.0816 56.8551 52.1599C57.035 52.2391 57.2301 52.2778 57.4385 52.2778C57.6468 52.2778 57.842 52.2381 58.0239 52.1599C58.2058 52.0816 58.3634 51.9749 58.4965 51.8397C58.6297 51.7055 58.7343 51.548 58.8106 51.3691C58.8868 51.1903 58.9244 50.9992 58.9244 50.7959C58.9244 50.5926 58.8858 50.3965 58.8106 50.2146C58.7343 50.0326 58.6297 49.8751 58.4965 49.7399C58.3634 49.6058 58.2058 49.499 58.0239 49.4218C57.842 49.3446 57.6468 49.3059 57.4385 49.3059C57.2301 49.3059 57.0391 49.3446 56.8571 49.4218C56.6752 49.499 56.5177 49.6058 56.3845 49.7399C56.2514 49.8751 56.1457 50.0326 56.0684 50.2146C55.9912 50.3965 55.9526 50.5896 55.9526 50.7959Z" fill="black"/>
<path d="M60.1882 50.9484C60.2035 51.1365 60.2512 51.3113 60.3315 51.4729C60.4118 51.6345 60.5165 51.7758 60.6456 51.8957C60.7757 52.0166 60.9251 52.1112 61.0948 52.1793C61.2646 52.2473 61.4465 52.2819 61.6396 52.2819C61.7463 52.2819 61.852 52.2707 61.9577 52.2473C62.0634 52.225 62.164 52.1904 62.2606 52.1467C62.3571 52.102 62.4466 52.0492 62.5289 51.9861C62.6112 51.9241 62.6834 51.853 62.7444 51.7747C62.8003 51.7321 62.8551 51.7178 62.908 51.7331C62.9334 51.7432 62.9578 51.7636 62.9802 51.794C63.0056 51.8225 63.0198 51.8581 63.0218 51.9028C63.0239 51.9475 63.0056 51.9882 62.9649 52.0268C62.8125 52.1975 62.6255 52.3378 62.4049 52.4476C62.1844 52.5583 61.9282 52.6132 61.6386 52.6132C61.3875 52.6132 61.1517 52.5655 60.9312 52.4699C60.7117 52.3744 60.5185 52.2443 60.3539 52.0796C60.1882 51.915 60.0581 51.7209 59.9636 51.5003C59.8691 51.2798 59.8203 51.043 59.8203 50.7909C59.8203 50.5389 59.8681 50.3041 59.9636 50.0835C60.0592 49.864 60.1892 49.6709 60.3539 49.5062C60.5185 49.3416 60.7117 49.2105 60.9312 49.116C61.1507 49.0204 61.3865 48.9727 61.6386 48.9727C61.8906 48.9727 62.1254 49.0204 62.346 49.116C62.5655 49.2115 62.7576 49.3406 62.9212 49.5042C63.0848 49.6678 63.2149 49.8599 63.3115 50.0795C63.408 50.299 63.4558 50.5338 63.4558 50.7828C63.4558 50.8285 63.4416 50.8671 63.4121 50.8986C63.3826 50.9301 63.344 50.9464 63.2962 50.9464H60.1862L60.1882 50.9484ZM63.1194 50.6659C63.1062 50.4748 63.0594 50.297 62.9781 50.1303C62.8968 49.9636 62.7891 49.8193 62.6559 49.6973C62.5228 49.5754 62.3693 49.4798 62.1965 49.4097C62.0238 49.3396 61.8398 49.305 61.6436 49.305C61.4475 49.305 61.2595 49.3396 61.0867 49.4097C60.9139 49.4798 60.7625 49.5764 60.6314 49.6993C60.5003 49.8223 60.3946 49.9666 60.3153 50.1323C60.235 50.298 60.1892 50.4758 60.176 50.6659H63.1184H63.1194Z" fill="black"/>
<path d="M68.6746 52.3965C68.6746 52.4453 68.6584 52.4849 68.6269 52.5164C68.5954 52.5479 68.5578 52.5642 68.5141 52.5642C68.4683 52.5642 68.4287 52.5479 68.3941 52.5164C68.3596 52.4849 68.3423 52.4443 68.3423 52.3965V50.1483C68.3372 50.0294 68.3088 49.9176 68.2569 49.815C68.2051 49.7123 68.137 49.6229 68.0526 49.5487C67.9683 49.4745 67.8727 49.4145 67.765 49.3718C67.6573 49.3292 67.5455 49.3068 67.4316 49.3068C67.3097 49.3068 67.1938 49.3312 67.083 49.379C66.9723 49.4277 66.8757 49.4918 66.7913 49.571C66.708 49.6513 66.6419 49.7448 66.5932 49.8516C66.5444 49.9583 66.521 50.0701 66.521 50.187V52.3975C66.521 52.4463 66.5047 52.4859 66.4712 52.5175C66.4377 52.549 66.4 52.5652 66.3574 52.5652C66.3147 52.5652 66.275 52.549 66.2415 52.5175C66.2069 52.4859 66.1897 52.4453 66.1897 52.3975V50.1494C66.1876 50.0304 66.1602 49.9186 66.1094 49.816C66.0586 49.7133 65.9915 49.6239 65.9071 49.5497C65.8228 49.4745 65.7272 49.4155 65.6195 49.3729C65.5118 49.3302 65.3989 49.3078 65.2821 49.3078C65.1652 49.3078 65.0453 49.3312 64.9375 49.3769C64.8298 49.4227 64.7332 49.4847 64.6499 49.5639C64.5655 49.6432 64.4995 49.7347 64.4497 49.8383C64.3999 49.943 64.3745 50.0518 64.3714 50.1666V52.4006C64.3714 52.4494 64.3551 52.489 64.3236 52.5205C64.2921 52.552 64.2545 52.5683 64.2108 52.5683C64.1651 52.5683 64.1255 52.552 64.0909 52.5205C64.0563 52.489 64.0391 52.4483 64.0391 52.4006V50.1748C64.0391 50.0101 64.0736 49.8546 64.1417 49.7103C64.2108 49.5649 64.3023 49.4389 64.4161 49.3292C64.53 49.2204 64.6621 49.134 64.8125 49.072C64.9619 49.01 65.1184 48.9785 65.281 48.9785C65.3949 48.9785 65.5057 48.9927 65.6103 49.0222C65.716 49.0517 65.8146 49.0934 65.9061 49.1482C65.9976 49.2031 66.0809 49.2682 66.1571 49.3424C66.2334 49.4166 66.2984 49.5009 66.3513 49.5924C66.4072 49.5009 66.4742 49.4176 66.5515 49.3424C66.6287 49.2672 66.7151 49.2021 66.8086 49.1482C66.9021 49.0944 67.0027 49.0517 67.1095 49.0222C67.2162 48.9927 67.3249 48.9785 67.4367 48.9785C67.5993 48.9785 67.7538 49.009 67.9022 49.07C68.0496 49.131 68.1787 49.2133 68.2894 49.318C68.4002 49.4227 68.4887 49.5456 68.5557 49.6879C68.6228 49.8302 68.6604 49.9817 68.6685 50.1412C68.6706 50.1463 68.6726 50.1554 68.6726 50.1676V52.4016L68.6746 52.3965Z" fill="black"/>
<path d="M69.656 50.9484C69.6712 51.1365 69.719 51.3113 69.7993 51.4729C69.8796 51.6345 69.9843 51.7758 70.1133 51.8957C70.2434 52.0166 70.3928 52.1112 70.5636 52.1793C70.7333 52.2473 70.9152 52.2819 71.1083 52.2819C71.2151 52.2819 71.3208 52.2707 71.4265 52.2473C71.5322 52.225 71.6328 52.1904 71.7293 52.1467C71.8259 52.102 71.9153 52.0492 71.9976 51.9861C72.08 51.9241 72.1521 51.853 72.2131 51.7747C72.269 51.7321 72.3239 51.7178 72.3767 51.7331C72.4022 51.7432 72.4265 51.7636 72.4489 51.794C72.4743 51.8225 72.4885 51.8581 72.4906 51.9028C72.4926 51.9475 72.4743 51.9882 72.4337 52.0268C72.2812 52.1975 72.0942 52.3378 71.8736 52.4476C71.6531 52.5583 71.397 52.6132 71.1073 52.6132C70.8553 52.6132 70.6205 52.5655 70.3999 52.4699C70.1804 52.3744 69.9873 52.2443 69.8226 52.0796C69.658 51.915 69.5269 51.7209 69.4324 51.5003C69.3379 51.2798 69.2891 51.043 69.2891 50.7909C69.2891 50.5389 69.3368 50.3041 69.4324 50.0835C69.5279 49.864 69.658 49.6709 69.8226 49.5062C69.9873 49.3416 70.1804 49.2105 70.3999 49.116C70.6195 49.0204 70.8553 48.9727 71.1073 48.9727C71.3594 48.9727 71.5942 49.0204 71.8147 49.116C72.0353 49.2115 72.2263 49.3406 72.39 49.5042C72.5536 49.6678 72.6837 49.8599 72.7802 50.0795C72.8768 50.299 72.9256 50.5338 72.9256 50.7828C72.9256 50.8285 72.9113 50.8671 72.8819 50.8986C72.8524 50.9301 72.8138 50.9464 72.766 50.9464H69.656V50.9484ZM72.5871 50.6659C72.5749 50.4748 72.5272 50.297 72.4459 50.1303C72.3645 49.9636 72.2568 49.8193 72.1237 49.6973C71.9905 49.5754 71.8371 49.4798 71.6643 49.4097C71.4915 49.3396 71.3075 49.305 71.1114 49.305C70.9152 49.305 70.7282 49.3396 70.5554 49.4097C70.3827 49.4798 70.2312 49.5764 70.1001 49.6993C69.969 49.8223 69.8633 49.9666 69.784 50.1323C69.7037 50.298 69.658 50.4758 69.6448 50.6659H72.5871Z" fill="black"/>
<path d="M76.8299 52.3998C76.8299 52.4486 76.8147 52.4882 76.7842 52.5197C76.7537 52.5512 76.7141 52.5675 76.6663 52.5675C76.6206 52.5675 76.5809 52.5512 76.5484 52.5197C76.5159 52.4882 76.4986 52.4476 76.4986 52.3998V50.7187C76.4986 50.5256 76.4671 50.3427 76.4031 50.1699C76.3401 49.9971 76.2506 49.8477 76.1368 49.7207C76.023 49.5936 75.8847 49.493 75.7252 49.4178C75.5646 49.3426 75.3888 49.305 75.1957 49.305C75.0025 49.305 74.8237 49.3416 74.66 49.4138C74.4964 49.4859 74.3541 49.5855 74.2332 49.7126C74.1122 49.8396 74.0177 49.989 73.9496 50.1608C73.8805 50.3325 73.847 50.5175 73.847 50.7157V52.3998C73.847 52.4486 73.8327 52.4882 73.8053 52.5197C73.7778 52.5512 73.7382 52.5675 73.6874 52.5675C73.6417 52.5675 73.602 52.5512 73.5675 52.5197C73.5329 52.4882 73.5156 52.4476 73.5156 52.3998V50.7076C73.5156 50.4687 73.5583 50.2441 73.6437 50.0327C73.7291 49.8213 73.847 49.6384 73.9984 49.4818C74.1498 49.3253 74.3277 49.2013 74.532 49.1099C74.7363 49.0184 74.9578 48.9727 75.1967 48.9727C75.4355 48.9727 75.655 49.0184 75.8563 49.1099C76.0565 49.2013 76.2293 49.3253 76.3746 49.4818C76.5189 49.6384 76.6318 49.8213 76.7121 50.0327C76.7923 50.2441 76.832 50.4687 76.832 50.7076V52.3998H76.8299Z" fill="black"/>
<path d="M77.9993 49.0222H79.8094C79.8552 49.0222 79.8948 49.0385 79.9294 49.07C79.9639 49.1015 79.9812 49.1401 79.9812 49.1859C79.9812 49.2316 79.9649 49.2702 79.9334 49.3017C79.9019 49.3332 79.8602 49.3495 79.8094 49.3495H77.9993V50.8395C77.9993 51.0427 78.0379 51.2318 78.1152 51.4076C78.1924 51.5834 78.2991 51.7359 78.4353 51.865C78.5715 51.9951 78.7301 52.0967 78.912 52.1699C79.0939 52.2441 79.2891 52.2807 79.4974 52.2807C79.6854 52.2807 79.8592 52.2532 80.0178 52.1963C80.1763 52.1404 80.3288 52.0489 80.4731 51.9219C80.4883 51.9066 80.5087 51.8924 80.5341 51.8802C80.5625 51.868 80.591 51.8629 80.6195 51.865C80.6489 51.868 80.6764 51.8802 80.7018 51.9036C80.7404 51.9392 80.7556 51.9829 80.7495 52.0337C80.7435 52.0845 80.7221 52.1272 80.6865 52.1628C80.531 52.3101 80.3522 52.4219 80.1489 52.4982C79.9456 52.5744 79.7281 52.612 79.4974 52.612C79.2464 52.612 79.0085 52.5673 78.787 52.4768C78.5654 52.3864 78.3703 52.2624 78.2036 52.1048C78.0369 51.9473 77.9068 51.7603 77.8113 51.5428C77.7157 51.3253 77.668 51.0915 77.668 50.8395V47.9276C77.668 47.8799 77.6842 47.8382 77.7178 47.8057C77.7513 47.7731 77.7899 47.7559 77.8357 47.7559C77.8834 47.7559 77.9231 47.7721 77.9536 47.8036C77.9841 47.8351 77.9993 47.8768 77.9993 47.9276V49.0212V49.0222Z" fill="black"/>
</g>
<defs>
<clipPath id="clip0_235_17440">
<rect width="143.033" height="56" fill="white"/>
</clipPath>
</defs>
</svg>
