<svg xmlns="http://www.w3.org/2000/svg" viewBox="0 0 1407.32 449.76"><defs><style>.cls-1{fill:#5b6fd0;}.cls-2{fill:#d164ff;}</style></defs><g id="Layer_2" data-name="Layer 2"><g id="Layer_1-2" data-name="Layer 1"><path class="cls-1" d="M96.94,178.49q-14.86-5.73-30.37-12.82a130.29,130.29,0,0,1-28.18-17.38,83.71,83.71,0,0,1-20.58-24.63Q9.89,109.32,9.88,89.41q0-21.25,8.61-37.79a84.76,84.76,0,0,1,23.28-28A105.78,105.78,0,0,1,76.18,6.07,143.23,143.23,0,0,1,118.53,0a183.88,183.88,0,0,1,29.18,2.36A132.46,132.46,0,0,1,175.55,10a96.86,96.86,0,0,1,23.62,13.33A60.19,60.19,0,0,1,215.7,42.85a30.49,30.49,0,0,1,2.87,17.21,24.64,24.64,0,0,1-6.24,13.83A29.48,29.48,0,0,1,199.17,82a20.75,20.75,0,0,1-15.52-1.35Q169.47,68.16,156,62.08T122.91,56a118.62,118.62,0,0,0-21.76,1.86,53.5,53.5,0,0,0-17.21,6.07A33.7,33.7,0,0,0,72.47,74.57a27.6,27.6,0,0,0-4.21,15.52q0,8.77,4.72,14.68A41.32,41.32,0,0,0,85.8,115.06,112.64,112.64,0,0,0,105,123l24,7.59q20.58,6.4,39.48,14.34A142.69,142.69,0,0,1,201.53,164a85.61,85.61,0,0,1,22.61,26.66q8.43,15.51,8.43,36.77A83,83,0,0,1,224,264.7a93,93,0,0,1-23.62,30,112.8,112.8,0,0,1-35.6,19.9,132,132,0,0,1-44.2,7.26,193.4,193.4,0,0,1-33.74-3,139.65,139.65,0,0,1-32.73-10,121.73,121.73,0,0,1-28.51-17.72,81.64,81.64,0,0,1-20.75-26Q-1.93,252.39.77,242.09T11.4,226.74q7.92-5.07,19.4-3.54t22.61,11.64q9.11,13.5,26.82,22.27t40,8.77a75.83,75.83,0,0,0,20.24-2.7,59.68,59.68,0,0,0,17.37-7.76,40.45,40.45,0,0,0,12-12,28.62,28.62,0,0,0,4.39-15.69q0-9.1-7.59-16.7a75.89,75.89,0,0,0-19.06-13.5,194.43,194.43,0,0,0-25.14-10.63Q108.75,182.21,96.94,178.49Z"/><path class="cls-1" d="M302.41,320.82a.69.69,0,0,0,1.2,0l31.17-55.58a35.72,35.72,0,0,0,4.46-20.41L303.16,25.93h-1.61l-34.82,218.7a35.7,35.7,0,0,0,4.46,20.78Z"/><path class="cls-1" d="M302.33,56.45,287.58,30.9,274.68,8.55a2.14,2.14,0,0,1,1.85-3.2h51.61A2.14,2.14,0,0,1,330,8.55L317.09,30.9Z"/><path class="cls-1" d="M622.56,289.16a27.76,27.76,0,0,1-8.26,20.41,27.33,27.33,0,0,1-20.08,8.27,30.18,30.18,0,0,1-11.47-2.19,29.55,29.55,0,0,1-9.45-6.08,31.4,31.4,0,0,1-6.58-9.11,25.53,25.53,0,0,1-2.53-11.3V116.07A60.72,60.72,0,0,0,558.45,93,57.36,57.36,0,0,0,545,74.74a64.52,64.52,0,0,0-19.4-12,63.48,63.48,0,0,0-47.24.34,67.63,67.63,0,0,0-19.91,12.65,59.72,59.72,0,0,0-13.66,18.72,53.37,53.37,0,0,0-5.06,23V289.16a27.73,27.73,0,0,1-8.27,20.41,27.3,27.3,0,0,1-20.08,8.27,30.21,30.21,0,0,1-11.47-2.19,29.55,29.55,0,0,1-9.45-6.08,29,29,0,0,1-6.41-9.11,27.17,27.17,0,0,1-2.36-11.3V117.42a110.4,110.4,0,0,1,9.62-45.72,118,118,0,0,1,26.15-37.28A127,127,0,0,1,455.54,9.28,114.94,114.94,0,0,1,501.43,0a116.26,116.26,0,0,1,51.12,11.47,126.5,126.5,0,0,1,40.66,30.71,129.63,129.63,0,0,1,41.16-30.71,120.46,120.46,0,0,1,96.84-2.53,121.22,121.22,0,0,1,63.43,60.73A114.65,114.65,0,0,1,805.44,114a14.62,14.62,0,0,1,.33,3.38V289.16a27.45,27.45,0,0,1-8.43,20.41,27.89,27.89,0,0,1-20.25,8.27,30.21,30.21,0,0,1-11.47-2.19,29.66,29.66,0,0,1-9.45-6.08,28.81,28.81,0,0,1-6.4-9.11,27,27,0,0,1-2.37-11.3V116.41a62.42,62.42,0,0,0-5.73-23.29A55.85,55.85,0,0,0,728,74.74a66,66,0,0,0-19.74-12A63,63,0,0,0,685,58.37a61.1,61.1,0,0,0-23.79,4.73,65.11,65.11,0,0,0-19.73,12.65A60.85,60.85,0,0,0,628,94.47a57.11,57.11,0,0,0-5.4,23V289.16Z"/><path class="cls-1" d="M843.88,160.94a156.72,156.72,0,0,1,12.65-62.75,161.11,161.11,0,0,1,34.58-51.12A164.53,164.53,0,0,1,942.4,12.65a160.75,160.75,0,0,1,125,0,161.2,161.2,0,0,1,85.36,85.54,156.72,156.72,0,0,1,12.66,62.75,155.54,155.54,0,0,1-12.66,62.59,164.84,164.84,0,0,1-34.41,51.12,161.26,161.26,0,0,1-50.95,34.58,160.82,160.82,0,0,1-118.26,2.7,168,168,0,0,1-47.24-27.5V418.58q0,12.82-7.76,21.6T873.57,449a28.34,28.34,0,0,1-11.47-2.36,30.62,30.62,0,0,1-9.45-6.41,30,30,0,0,1-6.41-9.62,30.27,30.27,0,0,1-2.36-12Zm58,0a98.82,98.82,0,0,0,8.1,39.65,105.93,105.93,0,0,0,21.93,32.73,104.18,104.18,0,0,0,32.73,22.27,99.06,99.06,0,0,0,40.15,8.26,97.56,97.56,0,0,0,40.15-8.26,105.33,105.33,0,0,0,32.39-22.27,103.6,103.6,0,0,0,21.77-32.73A102.81,102.81,0,0,0,1077.36,88.4,104.38,104.38,0,0,0,1045,66.47a103.14,103.14,0,0,0-80.13,0A105.81,105.81,0,0,0,932.11,88.4,102.45,102.45,0,0,0,910,121,99.6,99.6,0,0,0,901.91,160.94Z"/><path class="cls-1" d="M1271.69,178.49q-14.85-5.73-30.37-12.82a130,130,0,0,1-28.17-17.38,83.59,83.59,0,0,1-20.59-24.63q-7.92-14.34-7.93-34.25,0-21.25,8.61-37.79a84.76,84.76,0,0,1,23.28-28,105.78,105.78,0,0,1,34.41-17.55A143.33,143.33,0,0,1,1293.28,0a184.1,184.1,0,0,1,29.19,2.36A132.53,132.53,0,0,1,1350.3,10a96.68,96.68,0,0,1,23.62,13.33,60.19,60.19,0,0,1,16.53,19.57,30.41,30.41,0,0,1,2.87,17.21,24.64,24.64,0,0,1-6.24,13.83,29.48,29.48,0,0,1-13.16,8.1,20.75,20.75,0,0,1-15.52-1.35q-14.18-12.48-27.67-18.56T1297.67,56a118.66,118.66,0,0,0-21.77,1.86,53.5,53.5,0,0,0-17.21,6.07,33.8,33.8,0,0,0-11.47,10.63A27.6,27.6,0,0,0,1243,90.09q0,8.77,4.72,14.68a41.32,41.32,0,0,0,12.82,10.29,112.64,112.64,0,0,0,19.23,7.93l24,7.59q20.58,6.4,39.48,14.34A142.48,142.48,0,0,1,1376.28,164a85.61,85.61,0,0,1,22.61,26.66q8.43,15.51,8.43,36.77a82.85,82.85,0,0,1-8.6,37.29,92.71,92.71,0,0,1-23.62,30,112.86,112.86,0,0,1-35.59,19.9,132,132,0,0,1-44.21,7.26,193.4,193.4,0,0,1-33.74-3,139.42,139.42,0,0,1-32.72-10,121.79,121.79,0,0,1-28.52-17.72,81.64,81.64,0,0,1-20.75-26q-6.75-12.81-4-23.11t10.63-15.35q7.92-5.07,19.4-3.54t22.61,11.64q9.1,13.5,26.82,22.27t40,8.77a75.78,75.78,0,0,0,20.24-2.7,59.86,59.86,0,0,0,17.38-7.76,40.53,40.53,0,0,0,12-12,28.62,28.62,0,0,0,4.39-15.69q0-9.1-7.59-16.7a75.89,75.89,0,0,0-19.06-13.5,194.43,194.43,0,0,0-25.14-10.63Q1283.49,182.21,1271.69,178.49Z"/><path class="cls-1" d="M1179.23,336.54a4,4,0,0,1,1.13-2.88,3.65,3.65,0,0,1,2.74-1.17,3.75,3.75,0,0,1,2.89,1.17,4.09,4.09,0,0,1,1.08,2.88v45.31a40.73,40.73,0,0,1,6.71-7.48,42.52,42.52,0,0,1,8.33-5.67,44.93,44.93,0,0,1,9.59-3.65,43.19,43.19,0,0,1,27.21,2,42.71,42.71,0,0,1,22.78,22.78,43.22,43.22,0,0,1,0,33.51,43.46,43.46,0,0,1-22.78,23,42.53,42.53,0,0,1-33.42,0,44.07,44.07,0,0,1-13.65-9.28,43.43,43.43,0,0,1-9.23-13.69,41.89,41.89,0,0,1-3.38-16.75Zm7.84,70.08a34,34,0,0,0,2.75,13.6,36.3,36.3,0,0,0,7.47,11.21,35.48,35.48,0,0,0,11.13,7.66,34.95,34.95,0,0,0,27.6,0,34.92,34.92,0,0,0,11.13-7.66,36.05,36.05,0,0,0,7.38-11.21,35.24,35.24,0,0,0-7.43-38.42,35.2,35.2,0,0,0-11.12-7.47,35.9,35.9,0,0,0-27.56,0,34.71,34.71,0,0,0-18.6,18.6A34.13,34.13,0,0,0,1187.07,406.62Z"/><path class="cls-1" d="M1277.14,347a5.11,5.11,0,0,1,1.53-3.83,5,5,0,0,1,3.61-1.49,5.33,5.33,0,0,1,3.87,1.49,5.11,5.11,0,0,1,1.53,3.83,4.93,4.93,0,0,1-1.53,3.6,5.25,5.25,0,0,1-3.87,1.53,5.23,5.23,0,0,1-5.14-5.13Zm9.1,97.55a4,4,0,0,1-1.13,2.88,3.65,3.65,0,0,1-2.74,1.17,4.08,4.08,0,0,1-4-4V368.88a3.78,3.78,0,0,1,1.17-2.84,3.9,3.9,0,0,1,2.8-1.13,3.7,3.7,0,0,1,2.79,1.13,3.94,3.94,0,0,1,1.08,2.84Z"/><path class="cls-1" d="M1379,364.91a3.88,3.88,0,0,1,2.8,1.27,3.42,3.42,0,0,1,1.12,2.74,3.88,3.88,0,0,1-1.12,2.75l-65.13,69.09h63.86a4,4,0,0,1,2.93,1.12,3.86,3.86,0,0,1,1.13,2.84,3.7,3.7,0,0,1-1.13,2.79,4,4,0,0,1-2.93,1.08h-72.15a3.63,3.63,0,0,1-3.6-2.07,3,3,0,0,1-.54-2.25,6.47,6.47,0,0,1,.32-1.26,2.86,2.86,0,0,1,.67-1.08l65.31-69.27h-61.34a3.8,3.8,0,0,1-2.84-1.13,3.95,3.95,0,0,1,0-5.53,3.89,3.89,0,0,1,2.84-1.09Z"/><circle class="cls-2" cx="1122.5" cy="426.96" r="20.59"/></g></g></svg>