<svg width="21" height="21" viewBox="0 0 21 21" fill="none" xmlns="http://www.w3.org/2000/svg">
<path fill-rule="evenodd" clip-rule="evenodd" d="M10.1616 3.33837C7.7209 3.33837 5.74236 5.31691 5.74236 7.75756C5.74236 10.1982 7.7209 12.1768 10.1616 12.1768C12.6022 12.1768 14.5807 10.1982 14.5807 7.75756C14.5807 5.31691 12.6022 3.33837 10.1616 3.33837ZM4.47974 7.75756C4.47974 4.61958 7.02357 2.07574 10.1616 2.07574C13.2995 2.07574 15.8434 4.61958 15.8434 7.75756C15.8434 10.8955 13.2995 13.4394 10.1616 13.4394C7.02357 13.4394 4.47974 10.8955 4.47974 7.75756Z" fill="#00AFF0"/>
<path fill-rule="evenodd" clip-rule="evenodd" d="M10.1616 13.4388C8.72081 13.4388 7.30543 13.8181 6.05772 14.5385C4.81001 15.2589 3.77394 16.2952 3.05367 17.543C2.87936 17.8449 2.49327 17.9484 2.1913 17.7741C1.88933 17.5998 1.78584 17.2137 1.96014 16.9118C2.79123 15.472 3.98669 14.2763 5.42635 13.4451C6.86602 12.6138 8.49915 12.1761 10.1616 12.1761C11.824 12.1761 13.4571 12.6138 14.8968 13.4451C16.3365 14.2763 17.5319 15.472 18.363 16.9118C18.5373 17.2137 18.4338 17.5998 18.1319 17.7741C17.8299 17.9484 17.4438 17.8449 17.2695 17.543C16.5492 16.2952 15.5132 15.2589 14.2654 14.5385C13.0177 13.8181 11.6024 13.4388 10.1616 13.4388Z" fill="#00AFF0"/>
</svg>
